<svg width="372" height="313" viewBox="0 0 372 313" fill="none" xmlns="http://www.w3.org/2000/svg">
    <mask id="path-1-inside-1_3669_6860" fill="white">
        <path d="M1 0H306V289H1V0Z" />
    </mask>
    <path
        d="M306 0H307V-1H306V0ZM306 289V290H307V289H306ZM1 0V1H306V0V-1H1V0ZM306 0H305V289H306H307V0H306ZM306 289V288H1V289V290H306V289Z"
        fill="#C2C2C2" mask="url(#path-1-inside-1_3669_6860)" />
    <path
        d="M1 205V193.298C1 190.297 5.12804 189.477 6.27529 192.25V192.25C7.42254 195.023 11.5506 194.203 11.5506 191.202V190.921C11.5506 188.005 15.4654 187.05 16.808 189.639V189.639C18.0622 192.058 21.6852 191.423 22.0415 188.722L24.636 169.048C25.0076 166.231 28.9341 165.858 29.8295 168.555V168.555C30.7228 171.246 34.6383 170.882 35.0213 168.073L37.9115 146.876C38.7031 141.07 46.9869 140.772 48.1934 146.506L48.4865 147.899C49.285 151.694 54.1564 152.823 56.5424 149.765V149.765C58.5176 147.234 62.4205 147.483 64.0583 150.244L65.0945 151.992C66.5465 154.44 70.1042 154.398 71.4985 151.917V151.917C73.0821 149.098 77.2652 149.526 78.2457 152.606L82.2292 165.123C83.1537 168.028 85.8514 170 88.8996 170H90.9797C92.6211 170 94.2104 170.577 95.4698 171.63L101.466 176.643C103.372 178.237 106.197 178.034 107.856 176.185L108.602 175.354C110.694 173.022 114.534 173.899 115.406 176.908V176.908C116.539 180.815 122.105 180.723 123.108 176.781L128.013 157.5L134.505 132.5L143.498 110.34C143.724 109.782 144.021 109.256 144.382 108.775L155.171 94.3727C157.096 91.8027 160.524 90.8723 163.484 92.1159L173.071 96.1427C175.104 96.997 176.617 98.7601 177.151 100.9L182.58 122.642C182.723 123.212 182.936 123.761 183.215 124.277L192.172 140.831C193.395 143.092 195.758 144.5 198.328 144.5H203.502C206.218 144.5 208.69 146.072 209.841 148.532L214.041 157.5L217.253 165.795C219.382 171.29 226.933 171.856 229.858 166.741L235.142 157.5L242.446 144.5L246.883 134.407C247.43 133.163 248.328 132.104 249.466 131.362L259.984 124.501C260.99 123.845 261.81 122.941 262.365 121.876L262.446 121.722C265.095 116.643 272.391 116.724 274.928 121.859L279.866 131.855C280.078 132.284 280.245 132.733 280.365 133.196L286.677 157.5L306 281"
        stroke="#014F01" stroke-width="1.5" stroke-linecap="round" stroke-linejoin="round" />
    <path
        d="M6.306 307H4.948V298.74L3.072 300.308L2.274 299.37L5.088 297.088H6.306V307ZM13.4982 296.836C14.0862 296.836 14.5902 296.971 15.0102 297.242C15.4395 297.513 15.7895 297.886 16.0602 298.362C16.3402 298.829 16.5455 299.379 16.6762 300.014C16.8068 300.649 16.8722 301.325 16.8722 302.044C16.8722 302.772 16.8068 303.453 16.6762 304.088C16.5455 304.713 16.3402 305.264 16.0602 305.74C15.7895 306.207 15.4395 306.575 15.0102 306.846C14.5902 307.117 14.0862 307.252 13.4982 307.252C12.9102 307.252 12.4015 307.117 11.9722 306.846C11.5428 306.575 11.1882 306.207 10.9082 305.74C10.6375 305.264 10.4368 304.713 10.3062 304.088C10.1755 303.453 10.1102 302.772 10.1102 302.044C10.1102 301.325 10.1755 300.649 10.3062 300.014C10.4368 299.379 10.6375 298.829 10.9082 298.362C11.1882 297.886 11.5428 297.513 11.9722 297.242C12.4015 296.971 12.9102 296.836 13.4982 296.836ZM13.4982 297.97C13.0875 297.97 12.7515 298.105 12.4902 298.376C12.2288 298.637 12.0235 298.973 11.8742 299.384C11.7342 299.785 11.6362 300.224 11.5802 300.7C11.5242 301.176 11.4962 301.624 11.4962 302.044C11.4962 302.464 11.5242 302.912 11.5802 303.388C11.6362 303.864 11.7342 304.303 11.8742 304.704C12.0235 305.105 12.2288 305.441 12.4902 305.712C12.7515 305.973 13.0875 306.104 13.4982 306.104C13.8995 306.104 14.2262 305.973 14.4782 305.712C14.7395 305.441 14.9448 305.105 15.0942 304.704C15.2435 304.303 15.3462 303.864 15.4022 303.388C15.4582 302.912 15.4862 302.464 15.4862 302.044C15.4862 301.624 15.4582 301.176 15.4022 300.7C15.3462 300.224 15.2435 299.785 15.0942 299.384C14.9448 298.973 14.7395 298.637 14.4782 298.376C14.2262 298.105 13.8995 297.97 13.4982 297.97ZM22.4863 304.788C22.5609 305.143 22.7243 305.437 22.9763 305.67C23.2283 305.903 23.5409 306.02 23.9143 306.02C24.2129 306.02 24.4556 305.964 24.6423 305.852C24.8383 305.74 24.9923 305.591 25.1043 305.404C25.2163 305.208 25.2956 304.984 25.3423 304.732C25.3889 304.471 25.4123 304.195 25.4123 303.906V297.088H26.7983V303.962C26.7983 304.307 26.7609 304.671 26.6863 305.054C26.6116 305.437 26.4716 305.791 26.2663 306.118C26.0609 306.445 25.7716 306.715 25.3983 306.93C25.0343 307.145 24.5629 307.252 23.9843 307.252C23.2283 307.252 22.6123 307.056 22.1363 306.664C21.6603 306.272 21.3476 305.768 21.1983 305.152L22.4863 304.788ZM33.7299 307C33.7113 306.832 33.6973 306.645 33.6879 306.44C33.6786 306.225 33.6739 306.048 33.6739 305.908H33.6459C33.4779 306.263 33.1933 306.566 32.7919 306.818C32.3999 307.061 31.9613 307.182 31.4759 307.182C31.0466 307.182 30.6733 307.112 30.3559 306.972C30.0479 306.832 29.7913 306.641 29.5859 306.398C29.3899 306.146 29.2406 305.857 29.1379 305.53C29.0446 305.203 28.9979 304.853 28.9979 304.48V300.364H30.3139V304.032C30.3139 304.303 30.3326 304.564 30.3699 304.816C30.4166 305.059 30.4959 305.273 30.6079 305.46C30.7199 305.647 30.8739 305.796 31.0699 305.908C31.2659 306.02 31.5179 306.076 31.8259 306.076C32.3579 306.076 32.7873 305.88 33.1139 305.488C33.4406 305.087 33.6039 304.555 33.6039 303.892V300.364H34.9199V305.572C34.9199 305.749 34.9246 305.978 34.9339 306.258C34.9433 306.538 34.9573 306.785 34.9759 307H33.7299ZM38.3924 300.364C38.411 300.532 38.425 300.723 38.4344 300.938C38.4437 301.143 38.4484 301.316 38.4484 301.456H38.4904C38.5744 301.279 38.6864 301.115 38.8264 300.966C38.9757 300.807 39.1437 300.672 39.3304 300.56C39.517 300.439 39.7224 300.345 39.9464 300.28C40.1704 300.215 40.4037 300.182 40.6464 300.182C41.0757 300.182 41.4444 300.257 41.7524 300.406C42.0604 300.546 42.317 300.737 42.5224 300.98C42.7277 301.223 42.877 301.507 42.9704 301.834C43.073 302.161 43.1244 302.511 43.1244 302.884V307H41.8084V303.318C41.8084 303.047 41.785 302.791 41.7384 302.548C41.701 302.305 41.6264 302.091 41.5144 301.904C41.4024 301.717 41.2484 301.568 41.0524 301.456C40.8564 301.344 40.6044 301.288 40.2964 301.288C39.7737 301.288 39.3444 301.489 39.0084 301.89C38.6817 302.282 38.5184 302.809 38.5184 303.472V307H37.2024V301.792C37.2024 301.615 37.1977 301.386 37.1884 301.106C37.179 300.826 37.165 300.579 37.1464 300.364H38.3924Z"
        fill="#A7ABA7" />
    <path
        d="M271.676 307H270.29V298.306H267.112V297.088H274.854V298.306H271.676V307ZM281.485 303.668C281.485 304.181 281.392 304.653 281.205 305.082C281.028 305.511 280.776 305.885 280.449 306.202C280.132 306.51 279.754 306.753 279.315 306.93C278.876 307.098 278.405 307.182 277.901 307.182C277.397 307.182 276.926 307.098 276.487 306.93C276.048 306.753 275.67 306.51 275.353 306.202C275.036 305.885 274.784 305.511 274.597 305.082C274.42 304.653 274.331 304.181 274.331 303.668C274.331 303.155 274.42 302.688 274.597 302.268C274.784 301.839 275.036 301.47 275.353 301.162C275.67 300.854 276.048 300.616 276.487 300.448C276.926 300.271 277.397 300.182 277.901 300.182C278.405 300.182 278.876 300.271 279.315 300.448C279.754 300.616 280.132 300.854 280.449 301.162C280.776 301.47 281.028 301.839 281.205 302.268C281.392 302.688 281.485 303.155 281.485 303.668ZM280.113 303.668C280.113 303.351 280.062 303.047 279.959 302.758C279.866 302.469 279.726 302.217 279.539 302.002C279.352 301.778 279.119 301.601 278.839 301.47C278.568 301.339 278.256 301.274 277.901 301.274C277.546 301.274 277.229 301.339 276.949 301.47C276.678 301.601 276.45 301.778 276.263 302.002C276.076 302.217 275.932 302.469 275.829 302.758C275.736 303.047 275.689 303.351 275.689 303.668C275.689 303.985 275.736 304.289 275.829 304.578C275.932 304.867 276.076 305.124 276.263 305.348C276.45 305.572 276.678 305.749 276.949 305.88C277.229 306.011 277.546 306.076 277.901 306.076C278.256 306.076 278.568 306.011 278.839 305.88C279.119 305.749 279.352 305.572 279.539 305.348C279.726 305.124 279.866 304.867 279.959 304.578C280.062 304.289 280.113 303.985 280.113 303.668ZM288.602 305.95C288.35 306.351 288.004 306.659 287.566 306.874C287.136 307.079 286.684 307.182 286.208 307.182C285.694 307.182 285.232 307.093 284.822 306.916C284.411 306.729 284.061 306.477 283.772 306.16C283.482 305.843 283.258 305.469 283.1 305.04C282.941 304.611 282.862 304.153 282.862 303.668C282.862 303.183 282.941 302.73 283.1 302.31C283.258 301.881 283.482 301.507 283.772 301.19C284.07 300.873 284.425 300.625 284.836 300.448C285.246 300.271 285.699 300.182 286.194 300.182C286.735 300.182 287.206 300.299 287.608 300.532C288.009 300.756 288.326 301.031 288.56 301.358H288.588V296.416H289.904V307H288.63V305.95H288.602ZM284.234 303.668C284.234 303.976 284.28 304.275 284.374 304.564C284.467 304.853 284.607 305.11 284.794 305.334C284.98 305.558 285.209 305.74 285.48 305.88C285.75 306.011 286.068 306.076 286.432 306.076C286.768 306.076 287.071 306.011 287.342 305.88C287.622 305.749 287.86 305.577 288.056 305.362C288.252 305.138 288.401 304.881 288.504 304.592C288.616 304.303 288.672 303.999 288.672 303.682C288.672 303.365 288.616 303.061 288.504 302.772C288.401 302.483 288.252 302.226 288.056 302.002C287.86 301.778 287.622 301.601 287.342 301.47C287.071 301.339 286.768 301.274 286.432 301.274C286.068 301.274 285.75 301.339 285.48 301.47C285.209 301.601 284.98 301.778 284.794 302.002C284.607 302.226 284.467 302.483 284.374 302.772C284.28 303.061 284.234 303.36 284.234 303.668ZM296.327 302.702C296.327 302.207 296.177 301.843 295.879 301.61C295.58 301.367 295.183 301.246 294.689 301.246C294.315 301.246 293.961 301.321 293.625 301.47C293.298 301.61 293.023 301.792 292.799 302.016L292.099 301.176C292.425 300.868 292.822 300.625 293.289 300.448C293.765 300.271 294.273 300.182 294.815 300.182C295.291 300.182 295.701 300.252 296.047 300.392C296.401 300.523 296.691 300.705 296.915 300.938C297.139 301.171 297.307 301.447 297.419 301.764C297.531 302.081 297.587 302.422 297.587 302.786V305.684C297.587 305.908 297.591 306.146 297.601 306.398C297.619 306.641 297.647 306.841 297.685 307H296.495C296.42 306.683 296.383 306.365 296.383 306.048H296.341C296.098 306.403 295.79 306.678 295.417 306.874C295.053 307.07 294.619 307.168 294.115 307.168C293.853 307.168 293.578 307.131 293.289 307.056C293.009 306.991 292.752 306.879 292.519 306.72C292.285 306.561 292.089 306.351 291.931 306.09C291.781 305.829 291.707 305.507 291.707 305.124C291.707 304.62 291.842 304.223 292.113 303.934C292.383 303.635 292.738 303.411 293.177 303.262C293.615 303.103 294.11 303.001 294.66 302.954C295.211 302.907 295.767 302.884 296.327 302.884V302.702ZM296.005 303.836C295.678 303.836 295.337 303.85 294.983 303.878C294.637 303.906 294.32 303.962 294.031 304.046C293.751 304.13 293.517 304.256 293.331 304.424C293.144 304.592 293.051 304.816 293.051 305.096C293.051 305.292 293.088 305.455 293.163 305.586C293.247 305.717 293.354 305.824 293.485 305.908C293.615 305.992 293.76 306.053 293.919 306.09C294.077 306.118 294.241 306.132 294.409 306.132C295.025 306.132 295.496 305.95 295.823 305.586C296.159 305.213 296.327 304.746 296.327 304.186V303.836H296.005ZM302.304 305.572H302.332L304.166 300.364H305.566L302.346 308.568C302.234 308.848 302.113 309.095 301.982 309.31C301.852 309.534 301.698 309.721 301.52 309.87C301.343 310.029 301.133 310.15 300.89 310.234C300.657 310.318 300.377 310.36 300.05 310.36C299.91 310.36 299.766 310.351 299.616 310.332C299.476 310.323 299.332 310.299 299.182 310.262L299.308 309.1C299.532 309.175 299.752 309.212 299.966 309.212C300.312 309.212 300.568 309.114 300.736 308.918C300.904 308.731 301.058 308.461 301.198 308.106L301.618 307L298.776 300.364H300.246L302.304 305.572Z"
        fill="#A7ABA7" />
    <path
        d="M319.306 14H317.948V5.74L316.072 7.308L315.274 6.37L318.088 4.088H319.306V14ZM325.084 13.16C325.084 13.4027 324.996 13.6173 324.818 13.804C324.641 13.9907 324.417 14.084 324.146 14.084C323.885 14.084 323.661 13.9953 323.474 13.818C323.297 13.6313 323.208 13.4167 323.208 13.174C323.208 12.922 323.297 12.7073 323.474 12.53C323.652 12.3433 323.876 12.25 324.146 12.25C324.417 12.25 324.641 12.3387 324.818 12.516C324.996 12.6933 325.084 12.908 325.084 13.16ZM332.823 5.292H328.735L328.651 7.896C328.838 7.83067 329.043 7.784 329.267 7.756C329.5 7.728 329.72 7.714 329.925 7.714C330.401 7.714 330.84 7.78867 331.241 7.938C331.652 8.078 332.002 8.28333 332.291 8.554C332.59 8.82467 332.823 9.156 332.991 9.548C333.159 9.93067 333.243 10.36 333.243 10.836C333.243 11.3587 333.154 11.83 332.977 12.25C332.8 12.67 332.557 13.0293 332.249 13.328C331.941 13.6173 331.577 13.8413 331.157 14C330.737 14.168 330.28 14.252 329.785 14.252C329.01 14.252 328.357 14.0747 327.825 13.72C327.293 13.356 326.892 12.8707 326.621 12.264L327.853 11.774C328.012 12.1753 328.259 12.4973 328.595 12.74C328.94 12.9827 329.337 13.104 329.785 13.104C330.074 13.104 330.345 13.0527 330.597 12.95C330.849 12.8473 331.068 12.7027 331.255 12.516C331.442 12.3293 331.586 12.1053 331.689 11.844C331.801 11.5827 331.857 11.2933 331.857 10.976C331.857 10.6027 331.792 10.2807 331.661 10.01C331.54 9.73 331.372 9.50133 331.157 9.324C330.942 9.14667 330.695 9.016 330.415 8.932C330.135 8.848 329.841 8.806 329.533 8.806C329.16 8.806 328.777 8.85733 328.385 8.96C327.993 9.06267 327.643 9.19333 327.335 9.352L327.475 4.088H332.823V5.292ZM339.903 8.778C340.164 8.84333 340.407 8.95533 340.631 9.114C340.864 9.26333 341.065 9.44533 341.233 9.66C341.401 9.87467 341.532 10.122 341.625 10.402C341.728 10.682 341.779 10.9807 341.779 11.298C341.779 11.7647 341.69 12.18 341.513 12.544C341.336 12.908 341.093 13.216 340.785 13.468C340.486 13.72 340.136 13.9113 339.735 14.042C339.334 14.182 338.909 14.252 338.461 14.252C338.013 14.252 337.584 14.182 337.173 14.042C336.772 13.9113 336.417 13.72 336.109 13.468C335.81 13.216 335.572 12.908 335.395 12.544C335.218 12.18 335.129 11.7647 335.129 11.298C335.129 10.9713 335.176 10.668 335.269 10.388C335.372 10.108 335.507 9.86067 335.675 9.646C335.852 9.43133 336.053 9.254 336.277 9.114C336.51 8.96467 336.753 8.85267 337.005 8.778V8.75C336.557 8.59133 336.188 8.32067 335.899 7.938C335.619 7.55533 335.479 7.08867 335.479 6.538C335.479 6.12733 335.558 5.75867 335.717 5.432C335.876 5.096 336.09 4.81133 336.361 4.578C336.632 4.33533 336.944 4.15333 337.299 4.032C337.663 3.90133 338.05 3.836 338.461 3.836C338.862 3.836 339.245 3.90133 339.609 4.032C339.973 4.15333 340.286 4.33067 340.547 4.564C340.818 4.788 341.032 5.068 341.191 5.404C341.35 5.73067 341.429 6.09933 341.429 6.51C341.429 7.05133 341.284 7.52267 340.995 7.924C340.715 8.32533 340.351 8.60067 339.903 8.75V8.778ZM336.837 6.58C336.837 6.804 336.874 7.014 336.949 7.21C337.033 7.406 337.145 7.57867 337.285 7.728C337.434 7.868 337.607 7.98 337.803 8.064C338.008 8.148 338.228 8.19 338.461 8.19C338.685 8.19 338.895 8.148 339.091 8.064C339.287 7.98 339.46 7.868 339.609 7.728C339.758 7.57867 339.875 7.406 339.959 7.21C340.043 7.014 340.085 6.804 340.085 6.58C340.085 6.34667 340.038 6.132 339.945 5.936C339.861 5.73067 339.744 5.558 339.595 5.418C339.455 5.26867 339.287 5.15667 339.091 5.082C338.895 4.998 338.685 4.956 338.461 4.956C338.228 4.956 338.008 4.998 337.803 5.082C337.607 5.15667 337.434 5.26867 337.285 5.418C337.145 5.558 337.033 5.73067 336.949 5.936C336.874 6.132 336.837 6.34667 336.837 6.58ZM336.515 11.228C336.515 11.508 336.562 11.7647 336.655 11.998C336.748 12.2313 336.879 12.432 337.047 12.6C337.224 12.7587 337.43 12.8847 337.663 12.978C337.906 13.0713 338.172 13.118 338.461 13.118C338.741 13.118 338.998 13.0713 339.231 12.978C339.474 12.8847 339.679 12.7587 339.847 12.6C340.015 12.432 340.146 12.2313 340.239 11.998C340.342 11.7647 340.393 11.508 340.393 11.228C340.393 10.9573 340.342 10.71 340.239 10.486C340.146 10.2527 340.015 10.052 339.847 9.884C339.679 9.716 339.474 9.58533 339.231 9.492C338.998 9.39867 338.741 9.352 338.461 9.352C338.181 9.352 337.92 9.39867 337.677 9.492C337.444 9.58533 337.238 9.716 337.061 9.884C336.893 10.052 336.758 10.2527 336.655 10.486C336.562 10.71 336.515 10.9573 336.515 11.228ZM348.929 10.612H350.357V11.774H348.929V14H347.613V11.774H343.049V10.542L347.263 4.088H348.929V10.612ZM347.613 5.642H347.585L344.449 10.612H347.613V5.642ZM353.699 13.16C353.699 13.4027 353.611 13.6173 353.433 13.804C353.256 13.9907 353.032 14.084 352.761 14.084C352.5 14.084 352.276 13.9953 352.089 13.818C351.912 13.6313 351.823 13.4167 351.823 13.174C351.823 12.922 351.912 12.7073 352.089 12.53C352.267 12.3433 352.491 12.25 352.761 12.25C353.032 12.25 353.256 12.3387 353.433 12.516C353.611 12.6933 353.699 12.908 353.699 13.16ZM360.892 10.612H362.32V11.774H360.892V14H359.576V11.774H355.012V10.542L359.226 4.088H360.892V10.612ZM359.576 5.642H359.548L356.412 10.612H359.576V5.642ZM368.21 14H366.852V5.74L364.976 7.308L364.178 6.37L366.992 4.088H368.21V14Z"
        fill="#A7ABA7" />
    <path
        d="M319.306 148.5H317.948V140.24L316.072 141.808L315.274 140.87L318.088 138.588H319.306V148.5ZM323.922 150.362H322.802L323.768 146.862H325.084L323.922 150.362ZM332.823 139.792H328.735L328.651 142.396C328.838 142.331 329.043 142.284 329.267 142.256C329.5 142.228 329.72 142.214 329.925 142.214C330.401 142.214 330.84 142.289 331.241 142.438C331.652 142.578 332.002 142.783 332.291 143.054C332.59 143.325 332.823 143.656 332.991 144.048C333.159 144.431 333.243 144.86 333.243 145.336C333.243 145.859 333.154 146.33 332.977 146.75C332.8 147.17 332.557 147.529 332.249 147.828C331.941 148.117 331.577 148.341 331.157 148.5C330.737 148.668 330.28 148.752 329.785 148.752C329.01 148.752 328.357 148.575 327.825 148.22C327.293 147.856 326.892 147.371 326.621 146.764L327.853 146.274C328.012 146.675 328.259 146.997 328.595 147.24C328.94 147.483 329.337 147.604 329.785 147.604C330.074 147.604 330.345 147.553 330.597 147.45C330.849 147.347 331.068 147.203 331.255 147.016C331.442 146.829 331.586 146.605 331.689 146.344C331.801 146.083 331.857 145.793 331.857 145.476C331.857 145.103 331.792 144.781 331.661 144.51C331.54 144.23 331.372 144.001 331.157 143.824C330.942 143.647 330.695 143.516 330.415 143.432C330.135 143.348 329.841 143.306 329.533 143.306C329.16 143.306 328.777 143.357 328.385 143.46C327.993 143.563 327.643 143.693 327.335 143.852L327.475 138.588H332.823V139.792ZM341.149 139.792H337.061L336.977 142.396C337.164 142.331 337.369 142.284 337.593 142.256C337.826 142.228 338.046 142.214 338.251 142.214C338.727 142.214 339.166 142.289 339.567 142.438C339.978 142.578 340.328 142.783 340.617 143.054C340.916 143.325 341.149 143.656 341.317 144.048C341.485 144.431 341.569 144.86 341.569 145.336C341.569 145.859 341.48 146.33 341.303 146.75C341.126 147.17 340.883 147.529 340.575 147.828C340.267 148.117 339.903 148.341 339.483 148.5C339.063 148.668 338.606 148.752 338.111 148.752C337.336 148.752 336.683 148.575 336.151 148.22C335.619 147.856 335.218 147.371 334.947 146.764L336.179 146.274C336.338 146.675 336.585 146.997 336.921 147.24C337.266 147.483 337.663 147.604 338.111 147.604C338.4 147.604 338.671 147.553 338.923 147.45C339.175 147.347 339.394 147.203 339.581 147.016C339.768 146.829 339.912 146.605 340.015 146.344C340.127 146.083 340.183 145.793 340.183 145.476C340.183 145.103 340.118 144.781 339.987 144.51C339.866 144.23 339.698 144.001 339.483 143.824C339.268 143.647 339.021 143.516 338.741 143.432C338.461 143.348 338.167 143.306 337.859 143.306C337.486 143.306 337.103 143.357 336.711 143.46C336.319 143.563 335.969 143.693 335.661 143.852L335.801 138.588H341.149V139.792ZM349.475 139.792H345.387L345.303 142.396C345.49 142.331 345.695 142.284 345.919 142.256C346.153 142.228 346.372 142.214 346.577 142.214C347.053 142.214 347.492 142.289 347.893 142.438C348.304 142.578 348.654 142.783 348.943 143.054C349.242 143.325 349.475 143.656 349.643 144.048C349.811 144.431 349.895 144.86 349.895 145.336C349.895 145.859 349.807 146.33 349.629 146.75C349.452 147.17 349.209 147.529 348.901 147.828C348.593 148.117 348.229 148.341 347.809 148.5C347.389 148.668 346.932 148.752 346.437 148.752C345.663 148.752 345.009 148.575 344.477 148.22C343.945 147.856 343.544 147.371 343.273 146.764L344.505 146.274C344.664 146.675 344.911 146.997 345.247 147.24C345.593 147.483 345.989 147.604 346.437 147.604C346.727 147.604 346.997 147.553 347.249 147.45C347.501 147.347 347.721 147.203 347.907 147.016C348.094 146.829 348.239 146.605 348.341 146.344C348.453 146.083 348.509 145.793 348.509 145.476C348.509 145.103 348.444 144.781 348.313 144.51C348.192 144.23 348.024 144.001 347.809 143.824C347.595 143.647 347.347 143.516 347.067 143.432C346.787 143.348 346.493 143.306 346.185 143.306C345.812 143.306 345.429 143.357 345.037 143.46C344.645 143.563 344.295 143.693 343.987 143.852L344.127 138.588H349.475V139.792ZM353.699 147.66C353.699 147.903 353.611 148.117 353.433 148.304C353.256 148.491 353.032 148.584 352.761 148.584C352.5 148.584 352.276 148.495 352.089 148.318C351.912 148.131 351.823 147.917 351.823 147.674C351.823 147.422 351.912 147.207 352.089 147.03C352.267 146.843 352.491 146.75 352.761 146.75C353.032 146.75 353.256 146.839 353.433 147.016C353.611 147.193 353.699 147.408 353.699 147.66ZM360.892 145.112H362.32V146.274H360.892V148.5H359.576V146.274H355.012V145.042L359.226 138.588H360.892V145.112ZM359.576 140.142H359.548L356.412 145.112H359.576V140.142ZM368.21 148.5H366.852V140.24L364.976 141.808L364.178 140.87L366.992 138.588H368.21V148.5Z"
        fill="#A7ABA7" />
    <path
        d="M319.306 283H317.948V274.74L316.072 276.308L315.274 275.37L318.088 273.088H319.306V283ZM323.922 284.862H322.802L323.768 281.362H325.084L323.922 284.862ZM332.823 274.292H328.735L328.651 276.896C328.838 276.831 329.043 276.784 329.267 276.756C329.5 276.728 329.72 276.714 329.925 276.714C330.401 276.714 330.84 276.789 331.241 276.938C331.652 277.078 332.002 277.283 332.291 277.554C332.59 277.825 332.823 278.156 332.991 278.548C333.159 278.931 333.243 279.36 333.243 279.836C333.243 280.359 333.154 280.83 332.977 281.25C332.8 281.67 332.557 282.029 332.249 282.328C331.941 282.617 331.577 282.841 331.157 283C330.737 283.168 330.28 283.252 329.785 283.252C329.01 283.252 328.357 283.075 327.825 282.72C327.293 282.356 326.892 281.871 326.621 281.264L327.853 280.774C328.012 281.175 328.259 281.497 328.595 281.74C328.94 281.983 329.337 282.104 329.785 282.104C330.074 282.104 330.345 282.053 330.597 281.95C330.849 281.847 331.068 281.703 331.255 281.516C331.442 281.329 331.586 281.105 331.689 280.844C331.801 280.583 331.857 280.293 331.857 279.976C331.857 279.603 331.792 279.281 331.661 279.01C331.54 278.73 331.372 278.501 331.157 278.324C330.942 278.147 330.695 278.016 330.415 277.932C330.135 277.848 329.841 277.806 329.533 277.806C329.16 277.806 328.777 277.857 328.385 277.96C327.993 278.063 327.643 278.193 327.335 278.352L327.475 273.088H332.823V274.292ZM341.597 283H335.129V281.698L339.077 277.778C339.376 277.47 339.632 277.148 339.847 276.812C340.062 276.476 340.169 276.098 340.169 275.678C340.169 275.417 340.122 275.183 340.029 274.978C339.936 274.763 339.81 274.581 339.651 274.432C339.492 274.283 339.306 274.171 339.091 274.096C338.876 274.012 338.648 273.97 338.405 273.97C337.901 273.97 337.486 274.133 337.159 274.46C336.832 274.777 336.627 275.188 336.543 275.692L335.213 275.468C335.269 275.095 335.386 274.749 335.563 274.432C335.75 274.105 335.983 273.825 336.263 273.592C336.543 273.349 336.865 273.163 337.229 273.032C337.602 272.901 337.999 272.836 338.419 272.836C338.83 272.836 339.222 272.897 339.595 273.018C339.978 273.139 340.314 273.317 340.603 273.55C340.892 273.783 341.121 274.077 341.289 274.432C341.466 274.787 341.555 275.193 341.555 275.65C341.555 275.967 341.513 276.261 341.429 276.532C341.345 276.803 341.228 277.059 341.079 277.302C340.939 277.545 340.771 277.778 340.575 278.002C340.379 278.217 340.174 278.431 339.959 278.646L336.739 281.782H341.597V283ZM345.849 277.078L345.863 277.106C346.003 277.022 346.19 276.957 346.423 276.91C346.657 276.863 346.881 276.84 347.095 276.84C347.525 276.84 347.926 276.919 348.299 277.078C348.682 277.227 349.013 277.442 349.293 277.722C349.573 277.993 349.793 278.319 349.951 278.702C350.11 279.085 350.189 279.5 350.189 279.948C350.189 280.443 350.101 280.895 349.923 281.306C349.755 281.707 349.517 282.053 349.209 282.342C348.901 282.631 348.537 282.855 348.117 283.014C347.707 283.173 347.259 283.252 346.773 283.252C346.279 283.252 345.821 283.168 345.401 283C344.981 282.841 344.617 282.617 344.309 282.328C344.011 282.039 343.773 281.693 343.595 281.292C343.427 280.891 343.343 280.457 343.343 279.99C343.343 279.449 343.432 278.959 343.609 278.52C343.787 278.081 344.02 277.633 344.309 277.176L346.899 273.088H348.509L345.849 277.078ZM344.715 280.004C344.715 280.293 344.762 280.569 344.855 280.83C344.958 281.082 345.098 281.301 345.275 281.488C345.462 281.675 345.681 281.824 345.933 281.936C346.185 282.048 346.465 282.104 346.773 282.104C347.081 282.104 347.357 282.053 347.599 281.95C347.851 281.847 348.066 281.703 348.243 281.516C348.43 281.32 348.57 281.096 348.663 280.844C348.766 280.583 348.817 280.298 348.817 279.99C348.817 279.691 348.766 279.416 348.663 279.164C348.57 278.912 348.435 278.693 348.257 278.506C348.089 278.319 347.879 278.175 347.627 278.072C347.375 277.969 347.095 277.918 346.787 277.918C346.479 277.918 346.195 277.969 345.933 278.072C345.681 278.175 345.462 278.319 345.275 278.506C345.098 278.693 344.958 278.912 344.855 279.164C344.762 279.416 344.715 279.696 344.715 280.004ZM353.699 282.16C353.699 282.403 353.611 282.617 353.433 282.804C353.256 282.991 353.032 283.084 352.761 283.084C352.5 283.084 352.276 282.995 352.089 282.818C351.912 282.631 351.823 282.417 351.823 282.174C351.823 281.922 351.912 281.707 352.089 281.53C352.267 281.343 352.491 281.25 352.761 281.25C353.032 281.25 353.256 281.339 353.433 281.516C353.611 281.693 353.699 281.908 353.699 282.16ZM361.886 283H355.418V281.698L359.366 277.778C359.665 277.47 359.921 277.148 360.136 276.812C360.351 276.476 360.458 276.098 360.458 275.678C360.458 275.417 360.411 275.183 360.318 274.978C360.225 274.763 360.099 274.581 359.94 274.432C359.781 274.283 359.595 274.171 359.38 274.096C359.165 274.012 358.937 273.97 358.694 273.97C358.19 273.97 357.775 274.133 357.448 274.46C357.121 274.777 356.916 275.188 356.832 275.692L355.502 275.468C355.558 275.095 355.675 274.749 355.852 274.432C356.039 274.105 356.272 273.825 356.552 273.592C356.832 273.349 357.154 273.163 357.518 273.032C357.891 272.901 358.288 272.836 358.708 272.836C359.119 272.836 359.511 272.897 359.884 273.018C360.267 273.139 360.603 273.317 360.892 273.55C361.181 273.783 361.41 274.077 361.578 274.432C361.755 274.787 361.844 275.193 361.844 275.65C361.844 275.967 361.802 276.261 361.718 276.532C361.634 276.803 361.517 277.059 361.368 277.302C361.228 277.545 361.06 277.778 360.864 278.002C360.668 278.217 360.463 278.431 360.248 278.646L357.028 281.782H361.886V283ZM370.114 274.32L366.138 283H364.584L368.714 274.292H363.8V273.088H370.114V274.32Z"
        fill="#A7ABA7" />
</svg>