<svg width="635" height="449" viewBox="0 0 635 449" fill="none" xmlns="http://www.w3.org/2000/svg">
<path d="M34.8643 118.64V200.555C34.8643 206.11 39.368 210.614 44.9237 210.614H86.7463C92.302 210.614 96.8057 215.118 96.8057 220.673V270.004C96.8057 275.56 92.302 280.064 86.7463 280.064H71.2018C65.6462 280.064 61.1424 284.567 61.1424 290.123V375.117C61.1424 380.673 65.6462 385.176 71.2019 385.176H256.352" stroke="#21241D" stroke-width="2.51485" stroke-dasharray="6.29 6.29"/>
<path d="M146.856 115.317V157.79C146.856 160.457 147.916 163.016 149.802 164.903L180.966 196.066C182.852 197.952 183.912 200.511 183.912 203.179V279.18C183.912 281.848 184.972 284.406 186.858 286.293L262.496 361.931" stroke="#21241D" stroke-width="2.51485" stroke-dasharray="6.29 6.29"/>
<path d="M261.857 119.15V196.62C261.857 202.175 266.361 206.679 271.917 206.679H348.271C353.827 206.679 358.331 211.183 358.331 216.738V259.231C358.331 264.787 353.827 269.291 348.271 269.291H326.862C321.306 269.291 316.802 273.795 316.802 279.35V322.319" stroke="#21241D" stroke-width="2.51485" stroke-dasharray="6.29 6.29"/>
<path d="M374.272 116.454L353.627 137.099C347.29 143.436 351.778 154.271 360.74 154.271H413.153C418.708 154.271 423.212 158.775 423.212 164.331V282.837C423.212 285.504 422.152 288.063 420.266 289.95L362.408 347.808" stroke="#21241D" stroke-width="2.51485" stroke-dasharray="6.29 6.29"/>
<path d="M493.604 114.329V313.962C493.604 319.517 489.1 324.021 483.544 324.021H429.988C424.432 324.021 419.928 328.525 419.928 334.08V352.689C419.928 358.244 415.424 362.748 409.869 362.748H361.365" stroke="#21241D" stroke-width="2.51485" stroke-dasharray="6.29 6.29"/>
<path d="M605.062 118.107V392.36C605.062 397.916 600.558 402.419 595.002 402.419H376.478" stroke="#21241D" stroke-width="2.51485" stroke-dasharray="6.29 6.29"/>
<path d="M385.644 380.831C385.644 418.466 355.135 448.975 317.5 448.975C279.865 448.975 249.356 418.466 249.356 380.831C249.356 343.196 279.865 312.687 317.5 312.687C355.135 312.687 385.644 343.196 385.644 380.831Z" fill="#21241D"/>
<path d="M301.6 409.5V388.862H295.336V383.722H301.6V377.137H295.336V371.998H301.6V352.163H309.952L317.58 371.998H327.056V352.163H333.4V371.998H339.664V377.137H333.4V383.722H339.664V388.862H333.4V409.5H324.968L317.34 388.862H307.864V409.5H301.6ZM307.864 383.722H315.412L313.003 377.137H307.703L307.864 383.722ZM327.056 398.177H327.378L327.137 388.862H323.764L327.056 398.177ZM307.703 371.998H311.076L307.703 362.04H307.382L307.703 371.998ZM321.837 383.722H327.217L327.056 377.137H319.427L321.837 383.722Z" fill="#ABF600"/>
<path d="M64.4051 101.058C60.0386 118.573 42.2985 129.231 24.7821 124.864C7.27398 120.497 -3.38498 102.757 0.982609 85.2441C5.34713 67.7278 23.0862 57.0678 40.5974 61.4344C58.1127 65.801 68.7707 83.5431 64.4041 101.058H64.4051Z" fill="#21241D"/>
<path fill-rule="evenodd" clip-rule="evenodd" d="M42.5394 89.351C42.9802 86.3999 40.7332 84.8134 37.6608 83.7551L38.6574 79.7574L36.2233 79.151L35.253 83.0433C34.614 82.8839 33.957 82.7335 33.3041 82.5845L34.2813 78.6665L31.8493 78.0601L30.852 82.0563C30.3225 81.9358 29.8027 81.8165 29.2981 81.6911L29.3009 81.6786L25.945 80.8407L25.2977 83.4397C25.2977 83.4397 27.1031 83.8535 27.065 83.8791C28.0506 84.1252 28.2294 84.7774 28.1989 85.2944L27.0636 89.8486C27.1315 89.866 27.2196 89.8909 27.3166 89.9297L27.0602 89.866L25.4682 96.2457C25.3476 96.5451 25.0419 96.9943 24.353 96.8238C24.3773 96.8591 22.5843 96.3823 22.5843 96.3823L21.3762 99.1684L24.5436 99.9579C24.9011 100.047 25.2542 100.14 25.6035 100.231L25.6039 100.231L25.6042 100.231C25.8302 100.29 26.0547 100.348 26.2777 100.406L25.2706 104.45L27.7013 105.056L28.6993 101.056C29.3626 101.236 30.0071 101.402 30.6378 101.559L29.644 105.541L32.0774 106.147L33.0844 102.111C37.2339 102.897 40.3548 102.58 41.6668 98.8275C42.7251 95.8056 41.6148 94.0625 39.4316 92.9252C41.0215 92.5572 42.2192 91.5113 42.5387 89.351H42.5394ZM36.9788 97.1475C36.288 99.9209 31.9459 98.7734 29.9609 98.2488L29.9608 98.2487C29.7831 98.2018 29.6243 98.1598 29.4887 98.1261L30.8249 92.7693C30.9907 92.8107 31.1933 92.8561 31.4227 92.9076C33.4762 93.3684 37.6846 94.3127 36.9795 97.1475H36.9788ZM31.8354 90.4218C33.4917 90.8637 37.1019 91.8268 37.7308 89.3074C38.3737 86.7298 34.8632 85.953 33.1487 85.5736C32.956 85.5309 32.7859 85.4933 32.647 85.4587L31.4355 90.3172C31.5502 90.3457 31.6847 90.3816 31.8354 90.4218Z" fill="#D2D2D2"/>
<path d="M147.119 124.585C165.175 124.585 179.812 110.229 179.812 92.5204C179.812 74.8118 165.175 60.4561 147.119 60.4561C129.063 60.4561 114.426 74.8118 114.426 92.5204C114.426 110.229 129.063 124.585 147.119 124.585Z" fill="#21241D"/>
<path d="M151.072 78.5177C149.026 79.6602 147.814 81.7233 147.814 83.8989C147.814 85.0414 148.297 86.1928 148.901 87.22C149.384 88.1375 149.621 89.7389 147.936 90.541C146.734 91.2247 145.161 90.7689 144.441 89.6235C143.722 88.7059 142.878 87.7884 141.791 87.1045C139.745 85.962 137.331 85.962 135.285 87.1045C133.238 88.247 132.03 90.3153 132.03 92.4915C132.03 94.6677 133.232 96.7301 135.284 97.8756C137.33 99.0181 139.744 99.0181 141.791 97.8756C142.878 97.3014 143.721 96.3898 144.32 95.3567C144.802 94.5546 146.129 93.5216 147.814 94.4392C149.016 95.1229 149.378 96.6177 148.779 97.7602C148.175 98.7932 147.814 99.9388 147.814 101.081C147.814 103.26 149.016 105.32 151.072 106.462C153.118 107.605 155.532 107.605 157.578 106.462C159.625 105.32 160.836 103.257 160.836 101.081C160.836 98.9057 159.631 96.8427 157.578 95.6971C156.491 95.1229 155.286 94.895 153.962 94.895C152.875 94.895 151.433 94.2113 151.433 92.4915C151.433 91.1152 152.52 90.088 153.962 90.088C155.165 90.088 156.491 89.8601 157.578 89.2859C159.625 88.1434 160.836 86.0803 160.836 83.9048C160.836 81.7294 159.631 79.6663 157.578 78.5236C156.613 77.9494 155.411 77.7215 154.324 77.7215C153.243 77.7156 152.032 77.9494 151.073 78.5177" fill="#D2D2D2"/>
<path d="M261.545 124.585C279.6 124.585 294.238 110.229 294.238 92.5204C294.238 74.8118 279.6 60.4561 261.545 60.4561C243.489 60.4561 228.851 74.8118 228.851 92.5204C228.851 110.229 243.489 124.585 261.545 124.585Z" fill="#21241D"/>
<path d="M255.173 85.7233L262.796 109.786L251.485 102.662L255.173 85.7233L262.796 75.255V82.5973L251.485 102.662H274.119L262.808 82.5973V75.255L270.43 85.7233L274.119 102.662L262.808 109.786L270.43 85.7233" stroke="white" stroke-width="0.754456" stroke-linecap="round" stroke-linejoin="round"/>
<path d="M375.97 124.585C394.026 124.585 408.663 110.229 408.663 92.5204C408.663 74.8118 394.026 60.4561 375.97 60.4561C357.914 60.4561 343.277 74.8118 343.277 92.5204C343.277 110.229 357.914 124.585 375.97 124.585Z" fill="#21241D"/>
<path fill-rule="evenodd" clip-rule="evenodd" d="M388.663 85.5142L388.013 85.0616C386.999 84.357 385.943 83.6225 384.905 82.8925C384.877 82.8717 384.849 82.8509 384.815 82.8301C384.675 82.7261 384.515 82.6151 384.32 82.5527L384.306 82.5458C381.226 81.8052 378.1 81.0473 375.054 80.309L374.182 80.0975C372.676 79.7334 371.172 79.3693 369.667 79.0052C368.163 78.6411 366.659 78.277 365.153 77.9129C365.076 77.8921 365 77.8713 364.916 77.8505C364.644 77.7742 364.33 77.6909 363.996 77.7325C363.898 77.7464 363.814 77.7811 363.738 77.8296L363.654 77.899C363.521 78.0238 363.452 78.1834 363.417 78.2735L363.396 78.329V78.648L363.41 78.6966C364.841 82.6859 366.3 86.7183 367.736 90.6877C368.21 91.9975 368.681 93.3004 369.148 94.5927C369.578 95.7817 370.013 96.9836 370.451 98.1925L370.451 98.1932L370.452 98.1958C371.489 101.061 372.541 103.966 373.575 106.834C373.666 107.111 373.924 107.292 374.245 107.319H374.314C374.614 107.319 374.879 107.174 375.012 106.938L380.534 98.9274C381.205 97.9545 381.877 96.9799 382.549 96.0053L382.552 96.0006L382.555 95.9959L382.556 95.9945L382.557 95.993C383.228 95.0194 383.9 94.0457 384.571 93.0738C384.846 92.6751 385.121 92.2746 385.397 91.8741C385.672 91.4735 385.948 91.073 386.223 90.6742L386.336 90.5092L386.337 90.5087C387.207 89.2428 388.102 87.9417 388.991 86.6724L389.04 86.603V86.5198C389.061 86.2771 389.068 85.7777 388.663 85.5142ZM380.731 89.194L380.731 89.1943L380.73 89.1946L380.728 89.1957C379.905 89.6243 379.074 90.0569 378.24 90.4869L379.403 89.2467L380.569 88.004C381.412 87.0981 382.288 86.166 383.154 85.2442L383.539 84.8345L383.56 84.8137C383.643 84.7027 383.748 84.5987 383.859 84.4877L383.859 84.4877C383.878 84.4689 383.898 84.4502 383.917 84.4313L383.917 84.4312L383.917 84.4311L383.917 84.4309C383.977 84.3728 384.039 84.3128 384.096 84.245C384.612 84.5987 385.135 84.9593 385.637 85.313C386 85.5696 386.369 85.8262 386.746 86.0829C385.212 86.8596 383.678 87.6572 382.193 88.434C381.709 88.6849 381.222 88.9387 380.731 89.194ZM375.807 91.3677C376.831 90.2789 377.863 89.1761 378.86 88.1011L379.739 87.1616L379.74 87.1609L379.741 87.16C380.772 86.0565 381.823 84.9329 382.869 83.8219C380.848 83.3332 378.826 82.8445 376.803 82.3558L376.8 82.355C374.776 81.8661 372.753 81.3771 370.731 80.8882C370.013 80.7079 369.281 80.5345 368.576 80.3681C367.775 80.1808 366.959 79.9866 366.15 79.7785C366.191 79.8285 366.233 79.8777 366.274 79.9267L366.274 79.9268C366.365 80.0343 366.454 80.1406 366.54 80.2501C366.603 80.3258 366.666 80.4028 366.728 80.4801C366.862 80.6439 366.996 80.809 367.133 80.9645L367.14 80.9714C367.586 81.5055 368.034 82.0412 368.482 82.577C368.93 83.1128 369.378 83.6485 369.824 84.1826C371.791 86.5337 373.819 88.968 375.807 91.3677ZM375.353 101.618C375.374 101.418 375.396 101.215 375.418 101.012C375.475 100.478 375.533 99.9384 375.583 99.4059C375.604 99.2094 375.625 99.0114 375.646 98.8133C375.688 98.4173 375.73 98.0212 375.772 97.6374L375.816 97.2218L375.816 97.2217C375.9 96.4294 375.986 95.618 376.058 94.8216L376.078 94.6551C376.148 94.0587 376.218 93.4414 376.26 92.8242C376.336 92.7826 376.42 92.741 376.511 92.7063C376.537 92.6941 376.563 92.6824 376.589 92.6707C376.668 92.6356 376.746 92.6005 376.824 92.5537C378.435 91.7145 380.046 90.8753 381.663 90.043C383.274 89.2108 384.926 88.3508 386.565 87.4977C385.073 89.6477 383.574 91.8185 382.123 93.9339L381.306 95.1205L381.305 95.1212C380.318 96.5537 379.315 98.0091 378.317 99.4476C378.033 99.863 377.742 100.283 377.454 100.7L377.454 100.7L377.453 100.701C377.232 101.021 377.012 101.34 376.797 101.653C376.239 102.458 375.667 103.283 375.109 104.108C375.179 103.276 375.263 102.437 375.353 101.618ZM365.542 81.1641C365.573 81.2481 365.604 81.3321 365.634 81.4153C367.21 85.78 368.785 90.1385 370.361 94.4971C371.149 96.6764 371.937 98.8557 372.725 101.036L373.471 103.096C373.568 103.38 373.673 103.671 373.778 103.949C373.791 103.986 373.805 104.024 373.82 104.063C373.844 104.126 373.868 104.19 373.889 104.254C373.918 103.989 373.945 103.725 373.972 103.462C374.004 103.145 374.036 102.831 374.07 102.52C374.083 102.4 374.096 102.28 374.109 102.159C374.243 100.9 374.381 99.6095 374.496 98.3309L374.503 98.2824C374.503 98.2824 374.614 97.3253 374.663 96.9022C374.671 96.8329 374.679 96.7632 374.688 96.6933C374.716 96.4553 374.745 96.2141 374.761 95.9729V95.9659C374.816 95.4735 374.865 94.988 374.914 94.5026C374.945 94.2234 374.975 93.9398 375.005 93.654C375.049 93.2296 375.094 92.8002 375.144 92.3734C374.954 92.1632 374.774 91.9455 374.598 91.7314C374.536 91.6558 374.474 91.5806 374.412 91.5064C374.231 91.2845 374.043 91.0556 373.854 90.8406C373.218 90.0731 372.581 89.3117 371.944 88.5504C371.626 88.1697 371.307 87.789 370.989 87.4076C369.141 85.2021 367.245 82.9272 365.362 80.6663C365.418 80.8281 365.48 80.9961 365.542 81.1641Z" fill="white"/>
<path d="M522.912 93.1498C522.912 111.111 508.352 125.671 490.391 125.671C472.43 125.671 457.87 111.111 457.87 93.1498C457.87 75.1891 472.43 60.6292 490.391 60.6292C508.352 60.6292 522.912 75.1891 522.912 93.1498Z" fill="#21241D"/>
<g opacity="0.8">
<path d="M490.287 78.0601L490.087 78.7428V98.5543L490.287 98.7548L499.484 93.3189L490.287 78.0601Z" fill="white"/>
<path d="M490.287 78.0601L481.091 93.3189L490.287 98.7549V89.139V78.0601Z" fill="white"/>
<path d="M490.287 101.747L490.174 101.885V108.942L490.287 109.273L499.489 96.3137L490.287 101.747Z" fill="white"/>
<path d="M490.287 109.273V101.747L481.091 96.3137L490.287 109.273Z" fill="white"/>
<path d="M490.287 98.7548L499.483 93.319L490.287 89.139V98.7548Z" fill="white"/>
<path d="M481.091 93.319L490.287 98.7549V89.139L481.091 93.319Z" fill="white"/>
</g>
<path d="M634.829 92.521C634.829 110.136 620.83 124.417 603.56 124.417C586.29 124.417 572.29 110.136 572.29 92.521C572.29 74.9057 586.29 60.6257 603.56 60.6257C620.829 60.6257 634.829 74.9057 634.829 92.521Z" fill="#21241D"/>
<path d="M600.353 91.9626V86.3826H592.933V81.4916H613.667V86.4515H606.247V91.9626H600.353Z" fill="#D2D2D2"/>
<path fill-rule="evenodd" clip-rule="evenodd" d="M589.744 92.5826C589.744 90.7226 595.707 89.207 603.127 89.207C610.547 89.207 616.51 90.7226 616.51 92.5826C616.51 94.4425 610.547 95.9581 603.127 95.9581C595.707 95.9581 589.744 94.4425 589.744 92.5826ZM615.401 92.5826C614.915 91.8937 610.893 89.7581 603.127 89.7581C595.36 89.7581 591.339 91.8248 590.853 92.5826C591.339 93.2715 595.36 94.3048 603.127 94.3048C610.963 94.3048 614.915 93.2715 615.401 92.5826Z" fill="#D2D2D2"/>
<path d="M606.247 93.6848V89.8271C605.277 89.7582 604.236 89.6893 603.196 89.6893C602.225 89.6893 601.324 89.6893 600.422 89.7582V93.616C601.255 93.616 602.225 93.6848 603.196 93.6848C604.236 93.7537 605.277 93.7537 606.247 93.6848Z" fill="#D2D2D2"/>
<path d="M603.127 95.9582C602.156 95.9582 601.255 95.9582 600.353 95.8893V106.154H606.178V95.8204C605.207 95.8893 604.167 95.9582 603.127 95.9582Z" fill="#D2D2D2"/>
</svg>
