<svg width="63" height="65" viewBox="0 0 63 65" fill="none" xmlns="http://www.w3.org/2000/svg">
    <path
        d="M62.6998 32.0649C62.6998 49.6803 48.7 63.9605 31.4302 63.9605C14.1601 63.9605 0.160156 49.6803 0.160156 32.0649C0.160156 14.4497 14.1601 0.169678 31.4302 0.169678C48.6998 0.169678 62.6998 14.4497 62.6998 32.0649Z"
        fill="#00AA79" />
    <path d="M28.2244 31.5065V25.9266H20.8047V21.0355H41.5383V25.9955H34.1186V31.5065H28.2244Z"
        fill="white" />
    <path fill-rule="evenodd" clip-rule="evenodd"
        d="M17.6133 32.1265C17.6133 30.2665 23.5768 28.751 30.9965 28.751C38.4163 28.751 44.3798 30.2665 44.3798 32.1265C44.3798 33.9865 38.4163 35.502 30.9965 35.502C23.5768 35.502 17.6133 33.9865 17.6133 32.1265ZM43.2703 32.1265C42.7849 31.4376 38.763 29.3021 30.9965 29.3021C23.2301 29.3021 19.2082 31.3687 18.7228 32.1265C19.2082 32.8154 23.2301 33.8487 30.9965 33.8487C38.8323 33.8487 42.7849 32.8154 43.2703 32.1265Z"
        fill="white" />
    <path
        d="M34.1178 33.2288V29.3711C33.147 29.3022 32.1069 29.2333 31.0667 29.2333C30.0959 29.2333 29.1944 29.2333 28.293 29.3022V33.1599C29.1251 33.1599 30.0959 33.2288 31.0667 33.2288C32.1069 33.2977 33.147 33.2977 34.1178 33.2288Z"
        fill="white" />
    <path
        d="M30.9964 35.5022C30.0256 35.5022 29.1241 35.5022 28.2227 35.4333V45.6976H34.0475V35.3644C33.0767 35.4333 32.0365 35.5022 30.9964 35.5022Z"
        fill="white" />
</svg>