<svg width="20" height="20" viewBox="0 0 20 20" fill="none" xmlns="http://www.w3.org/2000/svg">
    <rect width="20" height="20" rx="10" fill="#FE754B" />
    <path
        d="M8.80994 14.7643H11.1921M11.4303 11.5848C12.557 11.0495 13.336 9.9011 13.336 8.57072C13.336 6.72885 11.8429 5.23572 10.001 5.23572C8.15915 5.23572 6.66602 6.72885 6.66602 8.57072C6.66602 9.9011 7.445 11.0495 8.57173 11.5848V11.9057C8.57173 12.3497 8.57173 12.5717 8.64426 12.7468C8.74097 12.9803 8.92647 13.1658 9.15994 13.2625C9.33505 13.335 9.55704 13.335 10.001 13.335C10.445 13.335 10.667 13.335 10.8421 13.2625C11.0756 13.1658 11.2611 12.9803 11.3578 12.7468C11.4303 12.5717 11.4303 12.3497 11.4303 11.9057V11.5848Z"
        stroke="white" stroke-width="0.952857" stroke-linecap="round" stroke-linejoin="round" />
</svg>