<svg width="36" height="36" viewBox="0 0 36 36" fill="none" xmlns="http://www.w3.org/2000/svg">
    <g opacity="0.3">
        <path
            d="M18.001 5.49976C24.9044 5.49976 30.5008 11.0963 30.501 17.9998C30.501 24.9033 24.9045 30.4998 18.001 30.4998C11.0976 30.4996 5.50098 24.9032 5.50098 17.9998C5.50115 11.0965 11.0977 5.49993 18.001 5.49976Z"
            stroke="#DC6803" stroke-width="1.66667" />
    </g>
    <g opacity="0.1">
        <path
            d="M18 1.33301C27.2047 1.33301 34.667 8.79525 34.667 18C34.667 27.2047 27.2047 34.667 18 34.667C8.79525 34.667 1.33301 27.2047 1.33301 18C1.33301 8.79525 8.79525 1.33301 18 1.33301Z"
            stroke="#DC6803" stroke-width="1.66667" />
    </g>
    <g clip-path="url(#clip0_3938_7802)">
        <path
            d="M18.0013 26.3334C22.6037 26.3334 26.3346 22.6025 26.3346 18.0001C26.3346 13.3977 22.6037 9.66675 18.0013 9.66675C13.3989 9.66675 9.66797 13.3977 9.66797 18.0001C9.66797 22.6025 13.3989 26.3334 18.0013 26.3334Z"
            fill="#DC6803" />
        <path
            d="M18.0013 14.6667V18.0001M18.0013 21.3334H18.0096M26.3346 18.0001C26.3346 22.6025 22.6037 26.3334 18.0013 26.3334C13.3989 26.3334 9.66797 22.6025 9.66797 18.0001C9.66797 13.3977 13.3989 9.66675 18.0013 9.66675C22.6037 9.66675 26.3346 13.3977 26.3346 18.0001Z"
            stroke="#F4E6D5" stroke-width="1.66667" stroke-linecap="round" stroke-linejoin="round" />
    </g>
    <defs>
        <clipPath id="clip0_3938_7802">
            <rect width="20" height="20" fill="white" transform="translate(8 8)" />
        </clipPath>
    </defs>
</svg>