<svg xmlns="http://www.w3.org/2000/svg" width="76" height="17" fill="none"><path fill="#21241D" d="M47.526 2.2v2.292H46.09v1.502h1.436V11.1c0 1.743.788 2.44 2.772 2.44.349 0 .681-.04.972-.09v-1.486c-.25.025-.407.041-.681.041-.888 0-1.278-.415-1.278-1.361V5.994h1.959V4.492h-1.96V2.2zM56.323 13.664c2.64 0 4.259-1.768 4.259-4.698 0-2.914-1.627-4.69-4.259-4.69-2.64 0-4.266 1.776-4.266 4.69 0 2.93 1.618 4.698 4.266 4.698m0-1.585c-1.552 0-2.423-1.137-2.423-3.113 0-1.959.871-3.104 2.423-3.104 1.544 0 2.424 1.145 2.424 3.104 0 1.967-.88 3.113-2.424 3.113M61.967 13.49h1.784V8.153c0-1.27.955-2.125 2.308-2.125.315 0 .847.058.996.107v-1.76c-.19-.05-.531-.074-.797-.074-1.179 0-2.183.647-2.44 1.536h-.133V4.45h-1.718zM71.486 5.795c1.32 0 2.183.921 2.225 2.34h-4.565c.1-1.41 1.02-2.34 2.34-2.34m2.217 5.255c-.332.705-1.071 1.095-2.15 1.095-1.428 0-2.35-1.004-2.407-2.59v-.1h6.383v-.622c0-2.839-1.52-4.557-4.034-4.557-2.549 0-4.167 1.835-4.167 4.723s1.585 4.665 4.175 4.665c2.067 0 3.511-.996 3.918-2.614zM35.822 10.152c.138 2.22 1.988 3.639 4.74 3.639 2.943 0 4.784-1.488 4.784-3.863 0-1.867-1.05-2.9-3.596-3.493L40.382 6.1c-1.617-.379-2.271-.887-2.271-1.773 0-1.118 1.015-1.85 2.538-1.85 1.445 0 2.443.715 2.624 1.859h1.876c-.112-2.09-1.953-3.562-4.474-3.562-2.71 0-4.517 1.471-4.517 3.682 0 1.824 1.024 2.908 3.27 3.433l1.6.387c1.643.387 2.365.955 2.365 1.902 0 1.1-1.135 1.9-2.684 1.9-1.66 0-2.813-.748-2.977-1.926zM17.335 4.301c-1.229 0-2.291.614-2.839 1.644h-.133V4.45h-1.718v12.045h1.785V12.12h.14c.474.955 1.495 1.52 2.782 1.52 2.282 0 3.735-1.802 3.735-4.674s-1.453-4.665-3.752-4.665m-.506 7.736c-1.495 0-2.433-1.178-2.433-3.063 0-1.892.938-3.071 2.441-3.071 1.51 0 2.416 1.154 2.416 3.063 0 1.918-.905 3.071-2.424 3.071M27.332 4.301c-1.229 0-2.291.614-2.84 1.644h-.132V4.45h-1.718v12.045h1.785V12.12h.14c.474.955 1.495 1.52 2.781 1.52 2.283 0 3.736-1.802 3.736-4.674s-1.453-4.665-3.752-4.665m-.506 7.736c-1.495 0-2.433-1.178-2.433-3.063 0-1.892.938-3.071 2.44-3.071 1.512 0 2.416 1.154 2.416 3.063 0 1.918-.904 3.071-2.423 3.071M9.443 13.49h2.048L7.008 1.075H4.935L.452 13.49h1.98l1.143-3.295h4.732zM5.873 3.33h.146l1.798 5.247H4.066z"/></svg>