<svg xmlns="http://www.w3.org/2000/svg" width="70" height="7" fill="none"><path fill="#21241D" d="M.651.71V6.7h2.162c1.785 0 2.819-1.1 2.819-3.013C5.632 1.802 4.59.71 2.813.71zm.93.847H2.71c1.24 0 1.975.789 1.975 2.142 0 1.374-.722 2.154-1.975 2.154H1.58zM8.797 6.787c1.32 0 2.129-.884 2.129-2.35 0-1.456-.814-2.344-2.13-2.344-1.32 0-2.133.888-2.133 2.345 0 1.465.81 2.349 2.134 2.349m0-.793c-.776 0-1.212-.568-1.212-1.556 0-.98.436-1.552 1.212-1.552.772 0 1.212.572 1.212 1.552 0 .983-.44 1.556-1.212 1.556M17.818 2.18h-.892l-.805 3.449h-.071l-.93-3.45h-.855l-.93 3.45h-.066l-.81-3.45h-.904L12.8 6.7h.917l.93-3.328h.07l.934 3.329h.926zM18.846 6.7h.892V4.056c0-.706.42-1.146 1.079-1.146.66 0 .975.361.975 1.088V6.7h.893V3.774c0-1.075-.556-1.681-1.565-1.681-.68 0-1.129.303-1.349.805h-.066V2.18h-.86zM24.09 6.7h.892V.416h-.892zM28.338 6.787c1.32 0 2.13-.884 2.13-2.35 0-1.456-.814-2.344-2.13-2.344-1.32 0-2.133.888-2.133 2.345 0 1.465.81 2.349 2.133 2.349m0-.793c-.776 0-1.212-.568-1.212-1.556 0-.98.436-1.552 1.212-1.552.772 0 1.212.572 1.212 1.552 0 .983-.44 1.556-1.212 1.556M33.126 6.023c-.485 0-.838-.236-.838-.643 0-.399.282-.61.905-.652l1.104-.07v.377c0 .56-.498.988-1.17.988m-.228.751c.593 0 1.087-.257 1.357-.71h.07V6.7h.86V3.612c0-.955-.64-1.52-1.772-1.52-1.025 0-1.756.499-1.847 1.275h.863c.1-.32.444-.502.942-.502.61 0 .926.27.926.747v.39l-1.225.07c-1.075.067-1.68.536-1.68 1.35 0 .825.634 1.352 1.506 1.352M38.213 6.774c.623 0 1.15-.294 1.42-.788h.07V6.7h.855V.416h-.892v2.482h-.067c-.245-.498-.768-.793-1.386-.793-1.141 0-1.876.905-1.876 2.333 0 1.432.726 2.336 1.876 2.336m.253-3.868c.747 0 1.216.594 1.216 1.536 0 .946-.465 1.531-1.216 1.531-.755 0-1.208-.577-1.208-1.535 0-.95.457-1.532 1.208-1.532M46.344 6.787c1.32 0 2.13-.884 2.13-2.35 0-1.456-.814-2.344-2.13-2.344-1.32 0-2.133.888-2.133 2.345 0 1.465.81 2.349 2.133 2.349m0-.793c-.776 0-1.212-.568-1.212-1.556 0-.98.436-1.552 1.212-1.552.772 0 1.212.572 1.212 1.552 0 .983-.44 1.556-1.212 1.556M49.655 6.7h.892V4.056c0-.706.42-1.146 1.08-1.146s.975.361.975 1.088V6.7h.892V3.774c0-1.075-.556-1.681-1.565-1.681-.68 0-1.129.303-1.349.805h-.066V2.18h-.86zM57.604 1.055v1.146h-.718v.75h.718v2.553c0 .872.394 1.22 1.386 1.22.174 0 .34-.02.485-.045v-.743c-.124.012-.203.02-.34.02-.444 0-.64-.207-.64-.68V2.952h.98V2.2h-.98V1.055zM60.673 6.7h.893V4.06c0-.685.406-1.145 1.137-1.145.63 0 .967.365.967 1.087V6.7h.892V3.782c0-1.075-.593-1.685-1.556-1.685-.68 0-1.158.303-1.378.81h-.07V.415h-.885zM67.781 2.852c.66 0 1.092.461 1.112 1.17h-2.282c.05-.705.51-1.17 1.17-1.17M68.89 5.48c-.166.353-.535.548-1.075.548-.713 0-1.174-.502-1.203-1.295v-.05h3.191v-.31c0-1.42-.76-2.28-2.017-2.28-1.274 0-2.083.918-2.083 2.362 0 1.445.793 2.333 2.088 2.333 1.033 0 1.755-.498 1.959-1.308z"/></svg>