<svg xmlns="http://www.w3.org/2000/svg" width="19" height="23" fill="none"><path fill="#21241D" d="M15.769 12.301a4.99 4.99 0 0 1 2.357-4.152 5.13 5.13 0 0 0-3.992-2.158c-1.679-.176-3.307 1.005-4.163 1.005-.872 0-2.19-.987-3.608-.958A5.36 5.36 0 0 0 1.89 8.766c-1.934 3.348-.491 8.27 1.361 10.976.927 1.325 2.01 2.806 3.428 2.753 1.387-.057 1.905-.884 3.58-.884 1.658 0 2.144.884 3.59.85 1.489-.023 2.426-1.33 3.32-2.668a11 11 0 0 0 1.52-3.093 4.82 4.82 0 0 1-2.92-4.399M13.037 4.211a4.87 4.87 0 0 0 1.115-3.49 4.96 4.96 0 0 0-3.208 1.66 4.68 4.68 0 0 0-1.143 3.36 4.15 4.15 0 0 0 3.236-1.53"/></svg>