<svg width="9" height="89" viewBox="0 0 9 89" fill="none" xmlns="http://www.w3.org/2000/svg">
<path d="M8.29239 85.2924C8.45388 85.1309 8.45388 84.8691 8.29239 84.7076L5.66086 82.0761C5.49937 81.9146 5.23755 81.9146 5.07607 82.0761C4.91458 82.2375 4.91458 82.4994 5.07607 82.6609L7.41522 85L5.07607 87.3391C4.91458 87.5006 4.91458 87.7625 5.07607 87.9239C5.23755 88.0854 5.49937 88.0854 5.66086 87.9239L8.29239 85.2924ZM8 1L8 0.586493L6.16883 0.586493L6.16883 1L6.16883 1.41351L8 1.41351L8 1ZM1 6.16883L0.586497 6.16883L0.586494 79.8312L1 79.8312L1.41351 79.8312L1.41351 6.16883L1 6.16883ZM6.16883 85L6.16883 85.4135L8 85.4135L8 85L8 84.5865L6.16883 84.5865L6.16883 85ZM1 79.8312L0.586494 79.8312C0.586494 82.9142 3.08579 85.4135 6.16883 85.4135L6.16883 85L6.16883 84.5865C3.54254 84.5865 1.41351 82.4575 1.41351 79.8312L1 79.8312ZM6.16883 1L6.16883 0.586493C3.08579 0.586493 0.586497 3.08579 0.586497 6.16883L1 6.16883L1.41351 6.16883C1.41351 3.54254 3.54254 1.41351 6.16883 1.41351L6.16883 1Z" fill="#667085"/>
</svg>
