<svg width="66" height="66" viewBox="0 0 66 66" fill="none" xmlns="http://www.w3.org/2000/svg">
<g filter="url(#filter0_d_3438_5932)">
<rect x="2" y="1" width="62.125" height="62.4381" rx="31.0625" fill="#F0EBE6"/>
<rect width="34.125" height="34.4381" transform="translate(16 15)" fill="#F0EBE6"/>
<path fill-rule="evenodd" clip-rule="evenodd" d="M22.787 26.5319C23.1294 24.1627 24.3139 21.9963 26.1236 20.4294C27.9333 18.8625 30.2469 18 32.6406 18C35.0344 18 37.348 18.8625 39.1576 20.4294C40.9673 21.9963 42.1518 24.1627 42.4942 26.5319H42.5938C44.1022 26.5319 45.5488 27.1311 46.6154 28.1977C47.682 29.2643 48.2812 30.711 48.2812 32.2194C48.2812 33.7278 47.682 35.1744 46.6154 36.2411C45.5488 37.3077 44.1022 37.9069 42.5938 37.9069H41.179C40.3898 37.9069 39.75 37.267 39.75 36.4779V27.9538C39.75 26.0682 39.001 24.2599 37.6677 22.9267C36.3344 21.5934 34.5261 20.8444 32.6406 20.8444C30.7551 20.8444 28.9468 21.5934 27.6135 22.9267C26.2803 24.2599 25.5312 26.0682 25.5312 27.9538V36.485C25.5312 39.9274 27.9769 42.7981 31.2273 43.4536C31.2655 43.1017 31.4323 42.7762 31.6958 42.5398C31.9593 42.3033 32.3008 42.1726 32.6548 42.1725H35.4702C36.2636 42.1725 36.9062 42.8152 36.9062 43.6086V45.002C36.9062 45.3829 36.7549 45.7482 36.4856 46.0175C36.2163 46.2868 35.851 46.4381 35.4702 46.4381H32.6406C30.2468 46.4388 27.9329 45.5766 26.1232 44.0097C24.3134 42.4428 23.129 40.2762 22.787 37.9069H22.6875C21.1791 37.9069 19.7324 37.3077 18.6658 36.2411C17.5992 35.1744 17 33.7278 17 32.2194C17 30.711 17.5992 29.2643 18.6658 28.1977C19.7324 27.1311 21.1791 26.5319 22.6875 26.5319H22.787ZM22.6875 29.3756C21.9333 29.3756 21.21 29.6752 20.6767 30.2086C20.1434 30.7419 19.8438 31.4652 19.8438 32.2194C19.8438 32.9736 20.1434 33.6969 20.6767 34.2302C21.21 34.7635 21.9333 35.0631 22.6875 35.0631V29.3756ZM42.5938 33.6413V29.3756C43.348 29.3756 44.0713 29.6752 44.6046 30.2086C45.1379 30.7419 45.4375 31.4652 45.4375 32.2194C45.4375 32.9736 45.1379 33.6969 44.6046 34.2302C44.0713 34.7635 43.348 35.0631 42.5938 35.0631V33.6413Z" fill="#163300"/>
</g>
<defs>
<filter id="filter0_d_3438_5932" x="0.6875" y="0.34375" width="64.75" height="65.0631" filterUnits="userSpaceOnUse" color-interpolation-filters="sRGB">
<feFlood flood-opacity="0" result="BackgroundImageFix"/>
<feColorMatrix in="SourceAlpha" type="matrix" values="0 0 0 0 0 0 0 0 0 0 0 0 0 0 0 0 0 0 127 0" result="hardAlpha"/>
<feOffset dy="0.65625"/>
<feGaussianBlur stdDeviation="0.65625"/>
<feColorMatrix type="matrix" values="0 0 0 0 0.0627451 0 0 0 0 0.0941176 0 0 0 0 0.156863 0 0 0 0.05 0"/>
<feBlend mode="normal" in2="BackgroundImageFix" result="effect1_dropShadow_3438_5932"/>
<feBlend mode="normal" in="SourceGraphic" in2="effect1_dropShadow_3438_5932" result="shape"/>
</filter>
</defs>
</svg>
