<svg xmlns="http://www.w3.org/2000/svg" width="64" height="64" fill="none"><rect width="64" height="64" fill="#ABF600" rx="20"/><path fill="green" d="M38.98 49.52c-.38 0-.76-.14-1.06-.44-.58-.58-.58-1.54 0-2.12l10.02-10.02c.58-.58 1.54-.58 2.12 0s.58 1.54 0 2.12L40.04 49.08c-.3.28-.68.44-1.06.44"/><path fill="green" d="M49 39.48H15c-.82 0-1.5-.68-1.5-1.5s.68-1.5 1.5-1.5h34c.82 0 1.5.68 1.5 1.5s-.68 1.5-1.5 1.5M15 27.52c-.38 0-.76-.14-1.06-.44-.58-.58-.58-1.54 0-2.12l10.02-10.02c.58-.58 1.54-.58 2.12 0s.58 1.54 0 2.12L16.06 27.08c-.28.28-.68.44-1.06.44"/><path fill="green" d="M49 27.52H15c-.82 0-1.5-.68-1.5-1.5s.68-1.5 1.5-1.5h34c.82 0 1.5.68 1.5 1.5s-.68 1.5-1.5 1.5"/></svg>