<svg width="26" height="16" viewBox="0 0 26 16" fill="none" xmlns="http://www.w3.org/2000/svg">
    <path
        d="M0 2C0 0.895431 0.895431 0 2 0H24C25.1046 0 26 0.895431 26 2V14C26 15.1046 25.1046 16 24 16H2C0.89543 16 0 15.1046 0 14V2Z"
        fill="#48C848" />
    <path
        d="M6.65146 4.72727H8.17134V9.7983C8.17134 10.267 8.06599 10.6742 7.85529 11.0199C7.64696 11.3655 7.35695 11.6319 6.98526 11.8189C6.61358 12.0059 6.18152 12.0994 5.6891 12.0994C5.25112 12.0994 4.8534 12.0225 4.49592 11.8686C4.1408 11.7124 3.85908 11.4756 3.65075 11.1584C3.44241 10.8388 3.33943 10.4375 3.3418 9.95455H4.87234C4.87707 10.1463 4.91613 10.3108 4.98952 10.4482C5.06528 10.5831 5.16826 10.6873 5.29847 10.7607C5.43105 10.8317 5.5873 10.8672 5.76722 10.8672C5.95662 10.8672 6.11642 10.8269 6.24663 10.7464C6.3792 10.6636 6.47982 10.5429 6.54847 10.3842C6.61713 10.2256 6.65146 10.0303 6.65146 9.7983V4.72727ZM9.44265 12V4.72727H12.312C12.8636 4.72727 13.3335 4.83262 13.7218 5.04332C14.11 5.25166 14.406 5.54167 14.6096 5.91335C14.8155 6.28267 14.9185 6.70881 14.9185 7.19176C14.9185 7.67472 14.8143 8.10085 14.606 8.47017C14.3977 8.83949 14.0958 9.12713 13.7005 9.3331C13.3075 9.53906 12.8316 9.64205 12.2729 9.64205H10.4441V8.4098H12.0243C12.3203 8.4098 12.5641 8.3589 12.7559 8.2571C12.95 8.15294 13.0944 8.00971 13.1891 7.82741C13.2862 7.64276 13.3347 7.43087 13.3347 7.19176C13.3347 6.95028 13.2862 6.73958 13.1891 6.55966C13.0944 6.37737 12.95 6.23651 12.7559 6.13707C12.5617 6.03527 12.3155 5.98438 12.0172 5.98438H10.9803V12H9.44265ZM20.7397 7.07812C20.69 6.9053 20.6201 6.7526 20.5302 6.62003C20.4402 6.48509 20.3301 6.37145 20.1999 6.27912C20.0721 6.18442 19.9253 6.11222 19.7596 6.0625C19.5962 6.01278 19.4151 5.98793 19.2163 5.98793C18.8446 5.98793 18.5179 6.08026 18.2362 6.26491C17.9568 6.44957 17.739 6.71828 17.5827 7.07102C17.4265 7.4214 17.3484 7.84991 17.3484 8.35653C17.3484 8.86316 17.4253 9.29403 17.5792 9.64915C17.7331 10.0043 17.9509 10.2753 18.2326 10.4624C18.5143 10.647 18.8469 10.7393 19.2305 10.7393C19.5785 10.7393 19.8756 10.6778 20.1218 10.5547C20.3704 10.4292 20.5598 10.2528 20.69 10.0256C20.8226 9.7983 20.8888 9.52959 20.8888 9.21946L21.2013 9.26562H19.3263V8.10795H22.3697V9.02415C22.3697 9.66335 22.2347 10.2126 21.9648 10.6719C21.695 11.1288 21.3233 11.4815 20.8498 11.7301C20.3763 11.9763 19.8342 12.0994 19.2234 12.0994C18.5415 12.0994 17.9426 11.9491 17.4265 11.6484C16.9104 11.3454 16.5079 10.9157 16.2191 10.3594C15.9326 9.80066 15.7894 9.13778 15.7894 8.37074C15.7894 7.78125 15.8746 7.25568 16.0451 6.79403C16.2179 6.33002 16.4594 5.93703 16.7695 5.61506C17.0797 5.29309 17.4407 5.04806 17.8526 4.87997C18.2646 4.71188 18.7108 4.62784 19.1914 4.62784C19.6033 4.62784 19.9869 4.68821 20.342 4.80895C20.6971 4.92732 21.012 5.09541 21.2866 5.31321C21.5636 5.53101 21.7897 5.79025 21.9648 6.09091C22.14 6.3892 22.2525 6.71828 22.3022 7.07812H20.7397Z"
        fill="white" />
</svg>