<svg xmlns="http://www.w3.org/2000/svg" width="40" height="8" fill="none"><path fill="#21241D" d="M6.418 4.243q0 1.257-.745 2.003-.847.888-2.204.888-1.3 0-2.208-.9T.352 4.001t.909-2.233q.908-.9 2.208-.9.646 0 1.231.25.587.252.938.67l-.527.528q-.595-.712-1.643-.712-.948 0-1.639.666-.69.666-.691 1.73 0 1.064.691 1.73a2.28 2.28 0 0 0 1.639.666q1.005 0 1.676-.67.435-.436.503-1.215H3.468v-.72h2.907q.044.234.043.452M11.028 1.737H8.296V3.64h2.464v.721H8.296v1.902h2.732V7H7.525V1h3.503zM14.279 7h-.771V1.737h-1.676V1h4.123v.737h-1.676zM18.938 7V1h.771v6zM23.128 7h-.77V1.737H20.68V1h4.123v.737h-1.676zM32.609 6.225q-.885.91-2.2.91t-2.2-.91q-.884-.91-.883-2.225 0-1.316.884-2.225.883-.91 2.199-.91 1.308 0 2.196.914.888.915.888 2.221 0 1.316-.884 2.225m-3.83-.503a2.2 2.2 0 0 0 1.63.674q.965 0 1.63-.674.666-.675.667-1.722 0-1.047-.667-1.722a2.2 2.2 0 0 0-1.63-.674q-.964 0-1.63.674-.665.675-.666 1.722 0 1.047.666 1.722M34.575 7V1h.938l2.916 4.667h.033l-.033-1.156v-3.51h.77v6h-.804l-3.051-4.895h-.033l.033 1.156V7z"/><path stroke="#21241D" stroke-miterlimit="10" stroke-width=".2" d="M6.418 4.243q0 1.257-.745 2.003-.847.888-2.204.888-1.3 0-2.208-.9T.352 4.001t.909-2.233q.908-.9 2.208-.9.646 0 1.231.25.587.252.938.67l-.527.528q-.595-.712-1.643-.712-.948 0-1.639.666-.69.666-.691 1.73 0 1.064.691 1.73a2.28 2.28 0 0 0 1.639.666q1.005 0 1.676-.67.435-.436.503-1.215H3.468v-.72h2.907q.044.234.043.452ZM11.028 1.737H8.296V3.64h2.464v.721H8.296v1.902h2.732V7H7.525V1h3.503zM14.279 7h-.771V1.737h-1.676V1h4.123v.737h-1.676zM18.938 7V1h.771v6zM23.128 7h-.77V1.737H20.68V1h4.123v.737h-1.676zM32.609 6.225q-.885.91-2.2.91t-2.2-.91q-.884-.91-.883-2.225 0-1.316.884-2.225.883-.91 2.199-.91 1.308 0 2.196.914.888.915.888 2.221 0 1.316-.884 2.225Zm-3.83-.503a2.2 2.2 0 0 0 1.63.674q.965 0 1.63-.674.666-.675.667-1.722 0-1.047-.667-1.722a2.2 2.2 0 0 0-1.63-.674q-.964 0-1.63.674-.665.675-.666 1.722 0 1.047.666 1.722ZM34.575 7V1h.938l2.916 4.667h.033l-.033-1.156v-3.51h.77v6h-.804l-3.051-4.895h-.033l.033 1.156V7z"/></svg>