<svg width="24" height="25" viewBox="0 0 24 25" fill="none" xmlns="http://www.w3.org/2000/svg">
    <g clip-path="url(#clip0_3393_5663)">
        <path fill-rule="evenodd" clip-rule="evenodd"
            d="M16.8423 7.23849C15.6033 6.05679 13.9498 5.41302 12.239 5.43948C9.10839 5.43948 6.44957 7.55153 5.50155 10.3955V10.3956C4.99889 11.8859 4.99889 13.4998 5.50155 14.9901H5.50595C6.45837 17.8297 9.11279 19.9418 12.2434 19.9418C13.8594 19.9418 15.2468 19.5284 16.3221 18.7983V18.7954C17.5875 17.9576 18.4518 16.6392 18.7207 15.1489H12.239V10.5279H23.5578C23.6989 11.3304 23.765 12.1505 23.765 12.9663C23.765 16.6161 22.4606 19.7019 20.1911 21.7919L20.1934 21.7937C18.2048 23.628 15.4755 24.6906 12.239 24.6906C7.7018 24.6906 3.55262 22.1332 1.5155 18.0811V18.081C-0.186487 14.6903 -0.186483 10.6954 1.51552 7.30466H1.51554L1.5155 7.30463C3.55261 3.24804 7.7018 0.690628 12.239 0.690628C15.2197 0.655353 18.099 1.77532 20.2684 3.81244L16.8423 7.23849Z"
            fill="#21241D" />
    </g>
    <defs>
        <clipPath id="clip0_3393_5663">
            <rect width="24" height="24" fill="white" transform="translate(0 0.690674)" />
        </clipPath>
    </defs>
</svg>