<svg width="250" height="250" viewBox="0 0 250 250" fill="none" xmlns="http://www.w3.org/2000/svg">
    <path
        d="M181.25 20.8335H68.7497C62.9158 20.8335 59.9989 20.8335 57.7706 21.9688C55.8106 22.9675 54.217 24.5611 53.2184 26.5211C52.083 28.7493 52.083 31.6663 52.083 37.5002V59.1097C52.083 64.2053 52.083 66.7532 52.6586 69.1508C53.169 71.2766 54.0107 73.3088 55.153 75.1728C56.4414 77.2752 58.243 79.0768 61.8461 82.6799L92.3812 113.215C96.5063 117.34 98.569 119.403 99.3418 121.781C100.022 123.873 100.022 126.127 99.3418 128.219C98.569 130.598 96.5064 132.66 92.3812 136.785L61.8461 167.32C58.243 170.924 56.4414 172.725 55.153 174.828C54.0107 176.692 53.169 178.724 52.6586 180.85C52.083 183.247 52.083 185.795 52.083 190.891V212.5C52.083 218.334 52.083 221.251 53.2184 223.479C54.217 225.439 55.8106 227.033 57.7706 228.031C59.9989 229.167 62.9158 229.167 68.7497 229.167H181.25C187.084 229.167 190.001 229.167 192.229 228.031C194.189 227.033 195.782 225.439 196.781 223.479C197.916 221.251 197.916 218.334 197.916 212.5V190.891C197.916 185.795 197.916 183.247 197.341 180.85C196.83 178.724 195.989 176.692 194.846 174.828C193.558 172.725 191.756 170.924 188.153 167.32L157.618 136.785C153.493 132.66 151.43 130.598 150.658 128.219C149.978 126.127 149.978 123.873 150.658 121.781C151.43 119.403 153.493 117.34 157.618 113.215L188.153 82.6799C191.756 79.0768 193.558 77.2752 194.846 75.1728C195.989 73.3088 196.83 71.2766 197.341 69.1508C197.916 66.7532 197.916 64.2053 197.916 59.1097V37.5002C197.916 31.6663 197.916 28.7493 196.781 26.5211C195.782 24.5611 194.189 22.9675 192.229 21.9688C190.001 20.8335 187.084 20.8335 181.25 20.8335Z"
        fill="#ABF600" />
    <path
        d="M93.7497 192.709H156.25M68.7497 20.8335H181.25C187.084 20.8335 190.001 20.8335 192.229 21.9688C194.189 22.9675 195.782 24.5611 196.781 26.5211C197.916 28.7493 197.916 31.6663 197.916 37.5002V59.1097C197.916 64.2053 197.916 66.7532 197.341 69.1508C196.83 71.2766 195.989 73.3088 194.846 75.1728C193.558 77.2752 191.756 79.0768 188.153 82.6799L157.618 113.215C153.493 117.34 151.43 119.403 150.658 121.781C149.978 123.873 149.978 126.127 150.658 128.219C151.43 130.598 153.493 132.66 157.618 136.785L188.153 167.32C191.756 170.924 193.558 172.725 194.846 174.828C195.989 176.692 196.83 178.724 197.341 180.85C197.916 183.247 197.916 185.795 197.916 190.891V212.5C197.916 218.334 197.916 221.251 196.781 223.479C195.782 225.439 194.189 227.033 192.229 228.031C190.001 229.167 187.084 229.167 181.25 229.167H68.7497C62.9158 229.167 59.9989 229.167 57.7706 228.031C55.8106 227.033 54.217 225.439 53.2184 223.479C52.083 221.251 52.083 218.334 52.083 212.5V190.891C52.083 185.795 52.083 183.247 52.6586 180.85C53.169 178.724 54.0107 176.692 55.153 174.828C56.4414 172.725 58.243 170.924 61.8461 167.32L92.3812 136.785C96.5064 132.66 98.569 130.598 99.3418 128.219C100.022 126.127 100.022 123.873 99.3418 121.781C98.569 119.403 96.5063 117.34 92.3812 113.215L61.8461 82.6799C58.243 79.0768 56.4414 77.2752 55.153 75.1728C54.0107 73.3088 53.169 71.2766 52.6586 69.1508C52.083 66.7532 52.083 64.2053 52.083 59.1097V37.5002C52.083 31.6663 52.083 28.7493 53.2184 26.5211C54.217 24.5611 55.8106 22.9675 57.7706 21.9688C59.9989 20.8335 62.9158 20.8335 68.7497 20.8335Z"
        stroke="#008000" stroke-width="10.83" stroke-linecap="round" stroke-linejoin="round" />
    <rect x="205.617" y="125" width="24.9143" height="24.9143" transform="rotate(45 205.617 125)"
        fill="#ABF600" />
    <rect x="23.4258" y="165.809" width="16.6999" height="16.6999"
        transform="rotate(45 23.4258 165.809)" fill="#ABF600" />
    <rect x="227.691" y="73.9258" width="13.7057" height="13.7057"
        transform="rotate(45 227.691 73.9258)" fill="#ABF600" />
</svg>