<svg width="451" height="108" viewBox="0 0 451 108" fill="none" xmlns="http://www.w3.org/2000/svg">
<path d="M-6.86646e-05 53.5604C-6.86646e-05 26.0704 20.7099 3.41757 47.3788 0.352844C50.7761 -0.0375748 53.5603 2.77222 53.5603 6.19194L53.5603 53.5604L53.5603 100.929C53.5603 104.349 50.7761 107.158 47.3788 106.768C20.7099 103.703 -6.86646e-05 81.0503 -6.86646e-05 53.5604Z" fill="#191919"/>
<circle cx="71.9814" cy="30.031" r="7.27554" fill="#191919"/>
<circle cx="71.9814" cy="53.5604" r="7.27554" fill="#191919"/>
<circle cx="71.9814" cy="77.0898" r="7.27554" fill="#191919"/>
<circle cx="92.7243" cy="53.5604" r="7.27554" fill="#191919"/>
<path d="M184.69 39.3744C183.159 37.297 181.164 35.7937 178.704 34.8644C176.244 33.8804 173.839 33.3884 171.488 33.3884C168.481 33.3884 165.748 33.935 163.288 35.0284C160.828 36.1217 158.696 37.625 156.892 39.5384C155.143 41.4517 153.776 43.693 152.792 46.2624C151.863 48.8317 151.398 51.6197 151.398 54.6264C151.398 57.797 151.863 60.6944 152.792 63.3184C153.721 65.9424 155.033 68.211 156.728 70.1244C158.477 71.983 160.555 73.4317 162.96 74.4704C165.365 75.509 168.071 76.0284 171.078 76.0284C174.194 76.0284 176.955 75.427 179.36 74.2244C181.765 72.967 183.706 71.327 185.182 69.3044L193.464 75.1264C190.895 78.3517 187.751 80.8664 184.034 82.6704C180.317 84.4197 175.971 85.2944 170.996 85.2944C166.459 85.2944 162.277 84.5564 158.45 83.0804C154.678 81.5497 151.425 79.445 148.692 76.7664C145.959 74.033 143.827 70.8077 142.296 67.0904C140.765 63.3184 140 59.1637 140 54.6264C140 49.9797 140.793 45.7977 142.378 42.0804C144.018 38.3084 146.232 35.1104 149.02 32.4864C151.863 29.8624 155.197 27.8397 159.024 26.4184C162.851 24.997 167.005 24.2864 171.488 24.2864C173.347 24.2864 175.287 24.4777 177.31 24.8604C179.333 25.1884 181.273 25.735 183.132 26.5004C184.991 27.211 186.74 28.113 188.38 29.2064C190.02 30.2997 191.414 31.6117 192.562 33.1424L184.69 39.3744Z" fill="#191919"/>
<path d="M199.556 21.8264H209.396V83.8184H199.556V21.8264Z" fill="#191919"/>
<path d="M257.249 83.8184H247.901V77.5044H247.737C246.862 79.4724 245.332 81.2217 243.145 82.7524C241.013 84.2284 238.471 84.9664 235.519 84.9664C232.95 84.9664 230.736 84.529 228.877 83.6544C227.073 82.725 225.57 81.5224 224.367 80.0464C223.219 78.5704 222.372 76.8757 221.825 74.9624C221.278 73.049 221.005 71.081 221.005 69.0584V44.4584H230.845V66.2704C230.845 67.4184 230.927 68.621 231.091 69.8784C231.255 71.1357 231.61 72.2837 232.157 73.3224C232.704 74.3064 233.442 75.1264 234.371 75.7824C235.355 76.4384 236.64 76.7664 238.225 76.7664C239.756 76.7664 241.095 76.4657 242.243 75.8644C243.446 75.2084 244.402 74.3884 245.113 73.4044C245.878 72.4204 246.452 71.2997 246.835 70.0424C247.218 68.7304 247.409 67.4184 247.409 66.1064V44.4584H257.249V83.8184Z" fill="#191919"/>
<path d="M290.626 54.9544C289.751 53.8064 288.548 52.8224 287.018 52.0024C285.487 51.1277 283.82 50.6904 282.016 50.6904C280.43 50.6904 278.982 51.0184 277.67 51.6744C276.358 52.3304 275.702 53.4237 275.702 54.9544C275.702 56.485 276.412 57.5784 277.834 58.2344C279.31 58.8357 281.442 59.4644 284.23 60.1204C285.706 60.4484 287.182 60.8857 288.658 61.4324C290.188 61.979 291.555 62.717 292.758 63.6464C294.015 64.521 295.026 65.6417 295.792 67.0084C296.557 68.3204 296.94 69.933 296.94 71.8464C296.94 74.2517 296.475 76.3017 295.546 77.9964C294.671 79.6364 293.468 80.9757 291.938 82.0144C290.462 83.053 288.712 83.791 286.69 84.2284C284.722 84.7204 282.672 84.9664 280.54 84.9664C277.478 84.9664 274.499 84.4197 271.602 83.3264C268.704 82.1784 266.299 80.5657 264.386 78.4884L270.864 72.4204C271.957 73.8417 273.378 75.017 275.128 75.9464C276.877 76.8757 278.818 77.3404 280.95 77.3404C281.66 77.3404 282.371 77.2584 283.082 77.0944C283.847 76.9304 284.53 76.6844 285.132 76.3564C285.788 75.9737 286.307 75.4817 286.69 74.8804C287.072 74.279 287.264 73.541 287.264 72.6664C287.264 71.0264 286.498 69.851 284.968 69.1404C283.492 68.4297 281.25 67.719 278.244 67.0084C276.768 66.6804 275.319 66.2704 273.898 65.7784C272.531 65.2317 271.301 64.5484 270.208 63.7284C269.114 62.8537 268.24 61.7877 267.584 60.5304C266.928 59.273 266.6 57.715 266.6 55.8564C266.6 53.6697 267.037 51.7837 267.912 50.1984C268.841 48.613 270.044 47.3284 271.52 46.3444C272.996 45.3057 274.663 44.5404 276.522 44.0484C278.38 43.5564 280.294 43.3104 282.262 43.3104C285.104 43.3104 287.865 43.8024 290.544 44.7864C293.277 45.7704 295.436 47.2737 297.022 49.2964L290.626 54.9544Z" fill="#191919"/>
<path d="M299.837 52.3304V44.4584H306.725V33.0604H316.401V44.4584H326.241V52.3304H316.401V70.6164C316.401 72.3657 316.702 73.8144 317.303 74.9624C317.959 76.1104 319.381 76.6844 321.567 76.6844C322.223 76.6844 322.934 76.6297 323.699 76.5204C324.465 76.3564 325.148 76.1377 325.749 75.8644L326.077 83.5724C325.203 83.9004 324.164 84.1464 322.961 84.3104C321.759 84.529 320.611 84.6384 319.517 84.6384C316.893 84.6384 314.761 84.283 313.121 83.5724C311.481 82.807 310.169 81.7957 309.185 80.5384C308.256 79.2264 307.6 77.7504 307.217 76.1104C306.889 74.4157 306.725 72.6117 306.725 70.6984V52.3304H299.837Z" fill="#191919"/>
<path d="M361.078 60.2024C361.078 58.945 360.887 57.7424 360.504 56.5944C360.176 55.4464 359.63 54.435 358.864 53.5604C358.099 52.6857 357.115 52.0024 355.912 51.5104C354.764 50.9637 353.398 50.6904 351.812 50.6904C348.86 50.6904 346.346 51.5924 344.268 53.3964C342.246 55.1457 341.125 57.4144 340.906 60.2024H361.078ZM370.918 64.6304C370.918 65.0677 370.918 65.505 370.918 65.9424C370.918 66.3797 370.891 66.817 370.836 67.2544H340.906C341.016 68.6757 341.371 69.9877 341.972 71.1904C342.628 72.3384 343.476 73.3497 344.514 74.2244C345.553 75.0444 346.728 75.7004 348.04 76.1924C349.352 76.6844 350.719 76.9304 352.14 76.9304C354.6 76.9304 356.678 76.493 358.372 75.6184C360.067 74.689 361.461 73.4317 362.554 71.8464L369.114 77.0944C365.233 82.3424 359.602 84.9664 352.222 84.9664C349.161 84.9664 346.346 84.5017 343.776 83.5724C341.207 82.5884 338.966 81.2217 337.052 79.4724C335.194 77.723 333.718 75.591 332.624 73.0764C331.586 70.507 331.066 67.6097 331.066 64.3844C331.066 61.2137 331.586 58.3437 332.624 55.7744C333.718 53.1504 335.194 50.9364 337.052 49.1324C338.911 47.2737 341.098 45.8524 343.612 44.8684C346.182 43.8297 348.942 43.3104 351.894 43.3104C354.628 43.3104 357.142 43.775 359.438 44.7044C361.789 45.579 363.812 46.9184 365.506 48.7224C367.201 50.4717 368.513 52.6857 369.442 55.3644C370.426 57.9884 370.918 61.077 370.918 64.6304Z" fill="#191919"/>
<path d="M408.164 60.2024C408.164 58.945 407.973 57.7424 407.59 56.5944C407.262 55.4464 406.716 54.435 405.95 53.5604C405.185 52.6857 404.201 52.0024 402.998 51.5104C401.85 50.9637 400.484 50.6904 398.898 50.6904C395.946 50.6904 393.432 51.5924 391.354 53.3964C389.332 55.1457 388.211 57.4144 387.992 60.2024H408.164ZM418.004 64.6304C418.004 65.0677 418.004 65.505 418.004 65.9424C418.004 66.3797 417.977 66.817 417.922 67.2544H387.992C388.102 68.6757 388.457 69.9877 389.058 71.1904C389.714 72.3384 390.562 73.3497 391.6 74.2244C392.639 75.0444 393.814 75.7004 395.126 76.1924C396.438 76.6844 397.805 76.9304 399.226 76.9304C401.686 76.9304 403.764 76.493 405.458 75.6184C407.153 74.689 408.547 73.4317 409.64 71.8464L416.2 77.0944C412.319 82.3424 406.688 84.9664 399.308 84.9664C396.247 84.9664 393.432 84.5017 390.862 83.5724C388.293 82.5884 386.052 81.2217 384.138 79.4724C382.28 77.723 380.804 75.591 379.71 73.0764C378.672 70.507 378.152 67.6097 378.152 64.3844C378.152 61.2137 378.672 58.3437 379.71 55.7744C380.804 53.1504 382.28 50.9364 384.138 49.1324C385.997 47.2737 388.184 45.8524 390.698 44.8684C393.268 43.8297 396.028 43.3104 398.98 43.3104C401.714 43.3104 404.228 43.775 406.524 44.7044C408.875 45.579 410.898 46.9184 412.592 48.7224C414.287 50.4717 415.599 52.6857 416.528 55.3644C417.512 57.9884 418.004 61.077 418.004 64.6304Z" fill="#191919"/>
<path d="M427.534 44.4584H436.964V51.0184H437.128C438.222 48.7224 439.752 46.8637 441.72 45.4424C443.688 44.021 445.984 43.3104 448.608 43.3104C448.991 43.3104 449.401 43.3377 449.838 43.3924C450.276 43.3924 450.658 43.447 450.986 43.5564V52.5764C450.33 52.4124 449.756 52.303 449.264 52.2484C448.827 52.1937 448.39 52.1664 447.952 52.1664C445.711 52.1664 443.907 52.5764 442.54 53.3964C441.174 54.2164 440.108 55.2004 439.342 56.3484C438.577 57.4964 438.058 58.6717 437.784 59.8744C437.511 61.077 437.374 62.0337 437.374 62.7444V83.8184H427.534V44.4584Z" fill="#191919"/>
</svg>
