<svg width="70" height="70" viewBox="0 0 70 70" fill="none" xmlns="http://www.w3.org/2000/svg">
<g filter="url(#filter0_dd_695_297)">
<rect x="3" y="2" width="64" height="64" rx="20" fill="#ABF600"/>
<path d="M45 51.5H35C34.18 51.5 33.5 50.82 33.5 50C33.5 49.18 34.18 48.5 35 48.5H45C50.72 48.5 53.5 45.72 53.5 40V28C53.5 22.28 50.72 19.5 45 19.5H25C19.28 19.5 16.5 22.28 16.5 28V32C16.5 32.82 15.82 33.5 15 33.5C14.18 33.5 13.5 32.82 13.5 32V28C13.5 20.7 17.7 16.5 25 16.5H45C52.3 16.5 56.5 20.7 56.5 28V40C56.5 47.3 52.3 51.5 45 51.5Z" fill="#008000"/>
<path d="M35 40.5C31.42 40.5 28.5 37.58 28.5 34C28.5 30.42 31.42 27.5 35 27.5C38.58 27.5 41.5 30.42 41.5 34C41.5 37.58 38.58 40.5 35 40.5ZM35 30.5C33.08 30.5 31.5 32.08 31.5 34C31.5 35.92 33.08 37.5 35 37.5C36.92 37.5 38.5 35.92 38.5 34C38.5 32.08 36.92 30.5 35 30.5Z" fill="#008000"/>
<path d="M48 40.5C47.18 40.5 46.5 39.82 46.5 39V29C46.5 28.18 47.18 27.5 48 27.5C48.82 27.5 49.5 28.18 49.5 29V39C49.5 39.82 48.82 40.5 48 40.5Z" fill="#008000"/>
<path d="M28 47.38C27.18 47.38 26.5 46.7 26.5 45.88V43.3199C26.5 42.8799 26.1401 42.5 25.6801 42.5H15C14.18 42.5 13.5 41.82 13.5 41C13.5 40.18 14.18 39.5 15 39.5H25.6801C27.7801 39.5 29.5 41.2199 29.5 43.3199V45.88C29.5 46.7 28.82 47.38 28 47.38Z" fill="#008000"/>
<path d="M17.4399 44.9399C17.0599 44.9399 16.6799 44.7999 16.3799 44.4999L13.9399 42.06C13.3599 41.48 13.3599 40.5199 13.9399 39.9399L16.3799 37.4999C16.9599 36.9199 17.9199 36.9199 18.4999 37.4999C19.0799 38.0799 19.0799 39.0399 18.4999 39.6199L17.1199 40.9999L18.4999 42.3799C19.0799 42.9599 19.0799 43.9199 18.4999 44.4999C18.1999 44.7999 17.8199 44.9399 17.4399 44.9399Z" fill="#008000"/>
<path d="M28 53.0602H17.3199C15.2199 53.0602 13.5 51.3401 13.5 49.2401V46.6802C13.5 45.8602 14.18 45.1802 15 45.1802C15.82 45.1802 16.5 45.8602 16.5 46.6802V49.2401C16.5 49.6801 16.8599 50.0602 17.3199 50.0602H28C28.82 50.0602 29.5 50.7402 29.5 51.5602C29.5 52.3802 28.82 53.0602 28 53.0602Z" fill="#008000"/>
<path d="M25.5595 55.4999C25.1795 55.4999 24.7995 55.36 24.4995 55.06C23.9195 54.48 23.9195 53.5199 24.4995 52.9399L25.8795 51.56L24.4995 50.18C23.9195 49.6 23.9195 48.64 24.4995 48.06C25.0795 47.48 26.0394 47.48 26.6194 48.06L29.0595 50.4999C29.6395 51.0799 29.6395 52.0399 29.0595 52.6199L26.6194 55.06C26.3394 55.36 25.9395 55.4999 25.5595 55.4999Z" fill="#008000"/>
</g>
<defs>
<filter id="filter0_dd_695_297" x="0" y="0" width="70" height="70" filterUnits="userSpaceOnUse" color-interpolation-filters="sRGB">
<feFlood flood-opacity="0" result="BackgroundImageFix"/>
<feColorMatrix in="SourceAlpha" type="matrix" values="0 0 0 0 0 0 0 0 0 0 0 0 0 0 0 0 0 0 127 0" result="hardAlpha"/>
<feOffset dy="1"/>
<feGaussianBlur stdDeviation="1"/>
<feColorMatrix type="matrix" values="0 0 0 0 0.0627451 0 0 0 0 0.0941176 0 0 0 0 0.156863 0 0 0 0.06 0"/>
<feBlend mode="normal" in2="BackgroundImageFix" result="effect1_dropShadow_695_297"/>
<feColorMatrix in="SourceAlpha" type="matrix" values="0 0 0 0 0 0 0 0 0 0 0 0 0 0 0 0 0 0 127 0" result="hardAlpha"/>
<feOffset dy="1"/>
<feGaussianBlur stdDeviation="1.5"/>
<feColorMatrix type="matrix" values="0 0 0 0 0.0627451 0 0 0 0 0.0941176 0 0 0 0 0.156863 0 0 0 0.1 0"/>
<feBlend mode="normal" in2="effect1_dropShadow_695_297" result="effect2_dropShadow_695_297"/>
<feBlend mode="normal" in="SourceGraphic" in2="effect2_dropShadow_695_297" result="shape"/>
</filter>
</defs>
</svg>
