<svg width="46" height="46" viewBox="0 0 46 46" fill="none" xmlns="http://www.w3.org/2000/svg">
    <path
        d="M23.0007 23.0001H23.0102M32.584 23.0001H32.5936M13.4173 23.0001H13.4269M9.96732 13.4167H36.034C38.1809 13.4167 39.2543 13.4167 40.0743 13.8346C40.7956 14.2021 41.382 14.7885 41.7495 15.5098C42.1673 16.3298 42.1673 17.4032 42.1673 19.5501V26.4501C42.1673 28.5969 42.1673 29.6704 41.7495 30.4904C41.382 31.2117 40.7956 31.7981 40.0743 32.1656C39.2543 32.5834 38.1809 32.5834 36.034 32.5834H9.96732C7.82045 32.5834 6.74702 32.5834 5.92702 32.1656C5.20573 31.7981 4.61931 31.2117 4.25179 30.4904C3.83398 29.6704 3.83398 28.5969 3.83398 26.4501V19.5501C3.83398 17.4032 3.83398 16.3298 4.25179 15.5098C4.61931 14.7885 5.20573 14.2021 5.92702 13.8346C6.74702 13.4167 7.82045 13.4167 9.96732 13.4167ZM23.4798 23.0001C23.4798 23.2647 23.2653 23.4792 23.0007 23.4792C22.736 23.4792 22.5215 23.2647 22.5215 23.0001C22.5215 22.7354 22.736 22.5209 23.0007 22.5209C23.2653 22.5209 23.4798 22.7354 23.4798 23.0001ZM33.0632 23.0001C33.0632 23.2647 32.8486 23.4792 32.584 23.4792C32.3193 23.4792 32.1048 23.2647 32.1048 23.0001C32.1048 22.7354 32.3193 22.5209 32.584 22.5209C32.8486 22.5209 33.0632 22.7354 33.0632 23.0001ZM13.8965 23.0001C13.8965 23.2647 13.682 23.4792 13.4173 23.4792C13.1527 23.4792 12.9382 23.2647 12.9382 23.0001C12.9382 22.7354 13.1527 22.5209 13.4173 22.5209C13.682 22.5209 13.8965 22.7354 13.8965 23.0001Z"
        stroke="black" stroke-width="3.83333" stroke-linecap="round" stroke-linejoin="round" />
</svg>