<svg width="64" height="64" viewBox="0 0 64 64" fill="none" xmlns="http://www.w3.org/2000/svg">
<rect width="64" height="64" rx="20" fill="#ABF600"/>
<path d="M26.3193 31.24C26.2593 31.24 26.2193 31.24 26.1593 31.24C26.0593 31.22 25.9193 31.22 25.7993 31.24C19.9993 31.06 15.6193 26.5 15.6193 20.88C15.6193 15.16 20.2793 10.5 25.9993 10.5C31.7193 10.5 36.3793 15.16 36.3793 20.88C36.3593 26.5 31.9593 31.06 26.3793 31.24C26.3593 31.24 26.3393 31.24 26.3193 31.24ZM25.9993 13.5C21.9393 13.5 18.6193 16.82 18.6193 20.88C18.6193 24.88 21.7393 28.1 25.7193 28.24C25.8393 28.22 26.0993 28.22 26.3593 28.24C30.2793 28.06 33.3593 24.84 33.3793 20.88C33.3793 16.82 30.0593 13.5 25.9993 13.5Z" fill="#008000"/>
<path d="M41.0792 31.5C41.0192 31.5 40.9592 31.5 40.8992 31.48C40.0792 31.56 39.2392 30.98 39.1592 30.16C39.0792 29.34 39.5792 28.6 40.3992 28.5C40.6392 28.48 40.8992 28.48 41.1192 28.48C44.0392 28.32 46.3192 25.92 46.3192 22.98C46.3192 19.94 43.8592 17.48 40.8192 17.48C39.9992 17.5 39.3192 16.82 39.3192 16C39.3192 15.18 39.9992 14.5 40.8192 14.5C45.4992 14.5 49.3192 18.32 49.3192 23C49.3192 27.6 45.7192 31.32 41.1392 31.5C41.1192 31.5 41.0992 31.5 41.0792 31.5Z" fill="#008000"/>
<path d="M26.3392 53.1C22.4192 53.1 18.4792 52.1 15.4992 50.1C12.7192 48.26 11.1992 45.74 11.1992 43C11.1992 40.26 12.7192 37.72 15.4992 35.86C21.4992 31.88 31.2192 31.88 37.1792 35.86C39.9392 37.7 41.4792 40.22 41.4792 42.96C41.4792 45.7 39.9592 48.24 37.1792 50.1C34.1792 52.1 30.2592 53.1 26.3392 53.1ZM17.1592 38.38C15.2392 39.66 14.1992 41.3 14.1992 43.02C14.1992 44.72 15.2592 46.36 17.1592 47.62C22.1392 50.96 30.5392 50.96 35.5192 47.62C37.4392 46.34 38.4792 44.7 38.4792 42.98C38.4792 41.28 37.4192 39.64 35.5192 38.38C30.5392 35.06 22.1392 35.06 17.1592 38.38Z" fill="#008000"/>
<path d="M44.6792 49.5C43.9792 49.5 43.3592 49.02 43.2192 48.3C43.0592 47.48 43.5792 46.7 44.3792 46.52C45.6392 46.26 46.7992 45.76 47.6992 45.06C48.8392 44.2 49.4592 43.12 49.4592 41.98C49.4592 40.84 48.8392 39.76 47.7192 38.92C46.8392 38.24 45.7392 37.76 44.4392 37.46C43.6392 37.28 43.1192 36.48 43.2992 35.66C43.4792 34.86 44.2792 34.34 45.0992 34.52C46.8192 34.9 48.3192 35.58 49.5392 36.52C51.3992 37.92 52.4592 39.9 52.4592 41.98C52.4592 44.06 51.3792 46.04 49.5192 47.46C48.2792 48.42 46.7192 49.12 44.9992 49.46C44.8792 49.5 44.7792 49.5 44.6792 49.5Z" fill="#008000"/>
</svg>
