<svg width="46" height="46" viewBox="0 0 46 46" fill="none" xmlns="http://www.w3.org/2000/svg">
    <path
        d="M28.7507 3.83337V6.51671C28.7507 7.59014 28.7507 8.12686 28.5417 8.53686C28.358 8.8975 28.0648 9.19071 27.7041 9.37447C27.2941 9.58337 26.7574 9.58337 25.684 9.58337H20.3173C19.2439 9.58337 18.7072 9.58337 18.2972 9.37447C17.9365 9.19071 17.6433 8.8975 17.4596 8.53686C17.2507 8.12686 17.2507 7.59014 17.2507 6.51671V3.83337M15.7173 42.1667H30.284C32.4309 42.1667 33.5043 42.1667 34.3243 41.7489C35.0456 41.3814 35.632 40.795 35.9995 40.0737C36.4173 39.2537 36.4173 38.1802 36.4173 36.0334V9.96671C36.4173 7.81984 36.4173 6.74641 35.9995 5.92641C35.632 5.20512 35.0456 4.6187 34.3243 4.25118C33.5043 3.83337 32.4309 3.83337 30.284 3.83337H15.7173C13.5704 3.83337 12.497 3.83337 11.677 4.25118C10.9557 4.6187 10.3693 5.20512 10.0018 5.92641C9.58398 6.74641 9.58398 7.81984 9.58398 9.96671V36.0334C9.58398 38.1802 9.58398 39.2537 10.0018 40.0737C10.3693 40.795 10.9557 41.3814 11.677 41.7489C12.497 42.1667 13.5704 42.1667 15.7173 42.1667Z"
        stroke="black" stroke-width="3.83333" stroke-linecap="round" stroke-linejoin="round" />
</svg>