<svg width="130" height="130" viewBox="0 0 130 130" fill="none" xmlns="http://www.w3.org/2000/svg">
<path d="M4.85614 0.25H0.390625V4.71552H4.85614V0.25Z" fill="black"/>
<path d="M9.32166 0.25H4.85614V4.71552H9.32166V0.25Z" fill="black"/>
<path d="M13.7872 0.25H9.32166V4.71552H13.7872V0.25Z" fill="black"/>
<path d="M18.2527 0.25H13.7872V4.71552H18.2527V0.25Z" fill="black"/>
<path d="M22.7182 0.25H18.2527V4.71552H22.7182V0.25Z" fill="black"/>
<path d="M27.1837 0.25H22.7182V4.71552H27.1837V0.25Z" fill="black"/>
<path d="M31.6492 0.25H27.1837V4.71552H31.6492V0.25Z" fill="black"/>
<path d="M40.5803 0.25H36.1148V4.71552H40.5803V0.25Z" fill="black"/>
<path d="M49.5113 0.25H45.0458V4.71552H49.5113V0.25Z" fill="black"/>
<path d="M71.8389 0.25H67.3734V4.71552H71.8389V0.25Z" fill="black"/>
<path d="M76.3044 0.25H71.8389V4.71552H76.3044V0.25Z" fill="black"/>
<path d="M85.2355 0.25H80.7699V4.71552H85.2355V0.25Z" fill="black"/>
<path d="M94.1665 0.25H89.701V4.71552H94.1665V0.25Z" fill="black"/>
<path d="M103.098 0.25H98.632V4.71552H103.098V0.25Z" fill="black"/>
<path d="M107.563 0.25H103.098V4.71552H107.563V0.25Z" fill="black"/>
<path d="M112.029 0.25H107.563V4.71552H112.029V0.25Z" fill="black"/>
<path d="M116.494 0.25H112.029V4.71552H116.494V0.25Z" fill="black"/>
<path d="M120.96 0.25H116.494V4.71552H120.96V0.25Z" fill="black"/>
<path d="M125.425 0.25H120.96V4.71552H125.425V0.25Z" fill="black"/>
<path d="M129.891 0.25H125.425V4.71552H129.891V0.25Z" fill="black"/>
<path d="M4.85614 4.71552H0.390625V9.18104H4.85614V4.71552Z" fill="black"/>
<path d="M31.6492 4.71552H27.1837V9.18104H31.6492V4.71552Z" fill="black"/>
<path d="M45.0458 4.71552H40.5803V9.18104H45.0458V4.71552Z" fill="black"/>
<path d="M49.5113 4.71552H45.0458V9.18104H49.5113V4.71552Z" fill="black"/>
<path d="M53.9768 4.71552H49.5113V9.18104H53.9768V4.71552Z" fill="black"/>
<path d="M58.4424 4.71552H53.9768V9.18104H58.4424V4.71552Z" fill="black"/>
<path d="M67.3734 4.71552H62.9079V9.18104H67.3734V4.71552Z" fill="black"/>
<path d="M71.8389 4.71552H67.3734V9.18104H71.8389V4.71552Z" fill="black"/>
<path d="M103.098 4.71552H98.632V9.18104H103.098V4.71552Z" fill="black"/>
<path d="M129.891 4.71552H125.425V9.18104H129.891V4.71552Z" fill="black"/>
<path d="M4.85614 9.18104H0.390625V13.6466H4.85614V9.18104Z" fill="black"/>
<path d="M13.7872 9.18104H9.32166V13.6466H13.7872V9.18104Z" fill="black"/>
<path d="M18.2527 9.18104H13.7872V13.6466H18.2527V9.18104Z" fill="black"/>
<path d="M22.7182 9.18104H18.2527V13.6466H22.7182V9.18104Z" fill="black"/>
<path d="M31.6492 9.18104H27.1837V13.6466H31.6492V9.18104Z" fill="black"/>
<path d="M49.5113 9.18104H45.0458V13.6466H49.5113V9.18104Z" fill="black"/>
<path d="M53.9768 9.18104H49.5113V13.6466H53.9768V9.18104Z" fill="black"/>
<path d="M58.4424 9.18104H53.9768V13.6466H58.4424V9.18104Z" fill="black"/>
<path d="M62.9079 9.18104H58.4424V13.6466H62.9079V9.18104Z" fill="black"/>
<path d="M71.8389 9.18104H67.3734V13.6466H71.8389V9.18104Z" fill="black"/>
<path d="M76.3044 9.18104H71.8389V13.6466H76.3044V9.18104Z" fill="black"/>
<path d="M89.701 9.18104H85.2355V13.6466H89.701V9.18104Z" fill="black"/>
<path d="M94.1665 9.18104H89.701V13.6466H94.1665V9.18104Z" fill="black"/>
<path d="M103.098 9.18104H98.632V13.6466H103.098V9.18104Z" fill="black"/>
<path d="M112.029 9.18104H107.563V13.6466H112.029V9.18104Z" fill="black"/>
<path d="M116.494 9.18104H112.029V13.6466H116.494V9.18104Z" fill="black"/>
<path d="M120.96 9.18104H116.494V13.6466H120.96V9.18104Z" fill="black"/>
<path d="M129.891 9.18104H125.425V13.6466H129.891V9.18104Z" fill="black"/>
<path d="M4.85614 13.6466H0.390625V18.1121H4.85614V13.6466Z" fill="black"/>
<path d="M13.7872 13.6466H9.32166V18.1121H13.7872V13.6466Z" fill="black"/>
<path d="M18.2527 13.6466H13.7872V18.1121H18.2527V13.6466Z" fill="black"/>
<path d="M22.7182 13.6466H18.2527V18.1121H22.7182V13.6466Z" fill="black"/>
<path d="M31.6492 13.6466H27.1837V18.1121H31.6492V13.6466Z" fill="black"/>
<path d="M40.5803 13.6466H36.1148V18.1121H40.5803V13.6466Z" fill="black"/>
<path d="M45.0458 13.6466H40.5803V18.1121H45.0458V13.6466Z" fill="black"/>
<path d="M49.5113 13.6466H45.0458V18.1121H49.5113V13.6466Z" fill="black"/>
<path d="M53.9768 13.6466H49.5113V18.1121H53.9768V13.6466Z" fill="black"/>
<path d="M62.9079 13.6466H58.4424V18.1121H62.9079V13.6466Z" fill="black"/>
<path d="M76.3044 13.6466H71.8389V18.1121H76.3044V13.6466Z" fill="black"/>
<path d="M89.701 13.6466H85.2355V18.1121H89.701V13.6466Z" fill="black"/>
<path d="M103.098 13.6466H98.632V18.1121H103.098V13.6466Z" fill="black"/>
<path d="M112.029 13.6466H107.563V18.1121H112.029V13.6466Z" fill="black"/>
<path d="M116.494 13.6466H112.029V18.1121H116.494V13.6466Z" fill="black"/>
<path d="M120.96 13.6466H116.494V18.1121H120.96V13.6466Z" fill="black"/>
<path d="M129.891 13.6466H125.425V18.1121H129.891V13.6466Z" fill="black"/>
<path d="M4.85614 18.1121H0.390625V22.5776H4.85614V18.1121Z" fill="black"/>
<path d="M13.7872 18.1121H9.32166V22.5776H13.7872V18.1121Z" fill="black"/>
<path d="M18.2527 18.1121H13.7872V22.5776H18.2527V18.1121Z" fill="black"/>
<path d="M22.7182 18.1121H18.2527V22.5776H22.7182V18.1121Z" fill="black"/>
<path d="M31.6492 18.1121H27.1837V22.5776H31.6492V18.1121Z" fill="black"/>
<path d="M62.9079 18.1121H58.4424V22.5776H62.9079V18.1121Z" fill="black"/>
<path d="M67.3734 18.1121H62.9079V22.5776H67.3734V18.1121Z" fill="black"/>
<path d="M71.8389 18.1121H67.3734V22.5776H71.8389V18.1121Z" fill="black"/>
<path d="M80.7699 18.1121H76.3044V22.5776H80.7699V18.1121Z" fill="black"/>
<path d="M103.098 18.1121H98.632V22.5776H103.098V18.1121Z" fill="black"/>
<path d="M112.029 18.1121H107.563V22.5776H112.029V18.1121Z" fill="black"/>
<path d="M116.494 18.1121H112.029V22.5776H116.494V18.1121Z" fill="black"/>
<path d="M120.96 18.1121H116.494V22.5776H120.96V18.1121Z" fill="black"/>
<path d="M129.891 18.1121H125.425V22.5776H129.891V18.1121Z" fill="black"/>
<path d="M4.85614 22.5776H0.390625V27.0431H4.85614V22.5776Z" fill="black"/>
<path d="M31.6492 22.5776H27.1837V27.0431H31.6492V22.5776Z" fill="black"/>
<path d="M40.5803 22.5776H36.1148V27.0431H40.5803V22.5776Z" fill="black"/>
<path d="M45.0458 22.5776H40.5803V27.0431H45.0458V22.5776Z" fill="black"/>
<path d="M49.5113 22.5776H45.0458V27.0431H49.5113V22.5776Z" fill="black"/>
<path d="M53.9768 22.5776H49.5113V27.0431H53.9768V22.5776Z" fill="black"/>
<path d="M58.4424 22.5776H53.9768V27.0431H58.4424V22.5776Z" fill="black"/>
<path d="M62.9079 22.5776H58.4424V27.0431H62.9079V22.5776Z" fill="black"/>
<path d="M71.8389 22.5776H67.3734V27.0431H71.8389V22.5776Z" fill="black"/>
<path d="M76.3044 22.5776H71.8389V27.0431H76.3044V22.5776Z" fill="black"/>
<path d="M103.098 22.5776H98.632V27.0431H103.098V22.5776Z" fill="black"/>
<path d="M129.891 22.5776H125.425V27.0431H129.891V22.5776Z" fill="black"/>
<path d="M4.85614 27.0431H0.390625V31.5086H4.85614V27.0431Z" fill="black"/>
<path d="M9.32166 27.0431H4.85614V31.5086H9.32166V27.0431Z" fill="black"/>
<path d="M13.7872 27.0431H9.32166V31.5086H13.7872V27.0431Z" fill="black"/>
<path d="M18.2527 27.0431H13.7872V31.5086H18.2527V27.0431Z" fill="black"/>
<path d="M22.7182 27.0431H18.2527V31.5086H22.7182V27.0431Z" fill="black"/>
<path d="M27.1837 27.0431H22.7182V31.5086H27.1837V27.0431Z" fill="black"/>
<path d="M31.6492 27.0431H27.1837V31.5086H31.6492V27.0431Z" fill="black"/>
<path d="M40.5803 27.0431H36.1148V31.5086H40.5803V27.0431Z" fill="black"/>
<path d="M49.5113 27.0431H45.0458V31.5086H49.5113V27.0431Z" fill="black"/>
<path d="M58.4424 27.0431H53.9768V31.5086H58.4424V27.0431Z" fill="black"/>
<path d="M67.3734 27.0431H62.9079V31.5086H67.3734V27.0431Z" fill="black"/>
<path d="M76.3044 27.0431H71.8389V31.5086H76.3044V27.0431Z" fill="black"/>
<path d="M85.2355 27.0431H80.7699V31.5086H85.2355V27.0431Z" fill="black"/>
<path d="M94.1665 27.0431H89.701V31.5086H94.1665V27.0431Z" fill="black"/>
<path d="M103.098 27.0431H98.632V31.5086H103.098V27.0431Z" fill="black"/>
<path d="M107.563 27.0431H103.098V31.5086H107.563V27.0431Z" fill="black"/>
<path d="M112.029 27.0431H107.563V31.5086H112.029V27.0431Z" fill="black"/>
<path d="M116.494 27.0431H112.029V31.5086H116.494V27.0431Z" fill="black"/>
<path d="M120.96 27.0431H116.494V31.5086H120.96V27.0431Z" fill="black"/>
<path d="M125.425 27.0431H120.96V31.5086H125.425V27.0431Z" fill="black"/>
<path d="M129.891 27.0431H125.425V31.5086H129.891V27.0431Z" fill="black"/>
<path d="M45.0458 31.5086H40.5803V35.9741H45.0458V31.5086Z" fill="black"/>
<path d="M67.3734 31.5086H62.9079V35.9741H67.3734V31.5086Z" fill="black"/>
<path d="M80.7699 31.5086H76.3044V35.9741H80.7699V31.5086Z" fill="black"/>
<path d="M85.2355 31.5086H80.7699V35.9741H85.2355V31.5086Z" fill="black"/>
<path d="M89.701 31.5086H85.2355V35.9741H89.701V31.5086Z" fill="black"/>
<path d="M94.1665 31.5086H89.701V35.9741H94.1665V31.5086Z" fill="black"/>
<path d="M27.1837 35.9741H22.7182V40.4397H27.1837V35.9741Z" fill="black"/>
<path d="M31.6492 35.9741H27.1837V40.4397H31.6492V35.9741Z" fill="black"/>
<path d="M40.5803 35.9741H36.1148V40.4397H40.5803V35.9741Z" fill="black"/>
<path d="M45.0458 35.9741H40.5803V40.4397H45.0458V35.9741Z" fill="black"/>
<path d="M53.9768 35.9741H49.5113V40.4397H53.9768V35.9741Z" fill="black"/>
<path d="M58.4424 35.9741H53.9768V40.4397H58.4424V35.9741Z" fill="black"/>
<path d="M67.3734 35.9741H62.9079V40.4397H67.3734V35.9741Z" fill="black"/>
<path d="M71.8389 35.9741H67.3734V40.4397H71.8389V35.9741Z" fill="black"/>
<path d="M76.3044 35.9741H71.8389V40.4397H76.3044V35.9741Z" fill="black"/>
<path d="M80.7699 35.9741H76.3044V40.4397H80.7699V35.9741Z" fill="black"/>
<path d="M98.632 35.9741H94.1665V40.4397H98.632V35.9741Z" fill="black"/>
<path d="M107.563 35.9741H103.098V40.4397H107.563V35.9741Z" fill="black"/>
<path d="M116.494 35.9741H112.029V40.4397H116.494V35.9741Z" fill="black"/>
<path d="M129.891 35.9741H125.425V40.4397H129.891V35.9741Z" fill="black"/>
<path d="M4.85614 40.4397H0.390625V44.9052H4.85614V40.4397Z" fill="black"/>
<path d="M18.2527 40.4397H13.7872V44.9052H18.2527V40.4397Z" fill="black"/>
<path d="M36.1148 40.4397H31.6492V44.9052H36.1148V40.4397Z" fill="black"/>
<path d="M40.5803 40.4397H36.1148V44.9052H40.5803V40.4397Z" fill="black"/>
<path d="M45.0458 40.4397H40.5803V44.9052H45.0458V40.4397Z" fill="black"/>
<path d="M71.8389 40.4397H67.3734V44.9052H71.8389V40.4397Z" fill="black"/>
<path d="M80.7699 40.4397H76.3044V44.9052H80.7699V40.4397Z" fill="black"/>
<path d="M89.701 40.4397H85.2355V44.9052H89.701V40.4397Z" fill="black"/>
<path d="M98.632 40.4397H94.1665V44.9052H98.632V40.4397Z" fill="black"/>
<path d="M4.85614 44.9052H0.390625V49.3707H4.85614V44.9052Z" fill="black"/>
<path d="M18.2527 44.9052H13.7872V49.3707H18.2527V44.9052Z" fill="black"/>
<path d="M22.7182 44.9052H18.2527V49.3707H22.7182V44.9052Z" fill="black"/>
<path d="M31.6492 44.9052H27.1837V49.3707H31.6492V44.9052Z" fill="black"/>
<path d="M36.1148 44.9052H31.6492V49.3707H36.1148V44.9052Z" fill="black"/>
<path d="M40.5803 44.9052H36.1148V49.3707H40.5803V44.9052Z" fill="black"/>
<path d="M49.5113 44.9052H45.0458V49.3707H49.5113V44.9052Z" fill="black"/>
<path d="M58.4424 44.9052H53.9768V49.3707H58.4424V44.9052Z" fill="black"/>
<path d="M71.8389 44.9052H67.3734V49.3707H71.8389V44.9052Z" fill="black"/>
<path d="M85.2355 44.9052H80.7699V49.3707H85.2355V44.9052Z" fill="black"/>
<path d="M94.1665 44.9052H89.701V49.3707H94.1665V44.9052Z" fill="black"/>
<path d="M103.098 44.9052H98.632V49.3707H103.098V44.9052Z" fill="black"/>
<path d="M112.029 44.9052H107.563V49.3707H112.029V44.9052Z" fill="black"/>
<path d="M120.96 44.9052H116.494V49.3707H120.96V44.9052Z" fill="black"/>
<path d="M129.891 44.9052H125.425V49.3707H129.891V44.9052Z" fill="black"/>
<path d="M27.1837 49.3707H22.7182V53.8362H27.1837V49.3707Z" fill="black"/>
<path d="M49.5113 49.3707H45.0458V53.8362H49.5113V49.3707Z" fill="black"/>
<path d="M62.9079 49.3707H58.4424V53.8362H62.9079V49.3707Z" fill="black"/>
<path d="M67.3734 49.3707H62.9079V53.8362H67.3734V49.3707Z" fill="black"/>
<path d="M76.3044 49.3707H71.8389V53.8362H76.3044V49.3707Z" fill="black"/>
<path d="M85.2355 49.3707H80.7699V53.8362H85.2355V49.3707Z" fill="black"/>
<path d="M89.701 49.3707H85.2355V53.8362H89.701V49.3707Z" fill="black"/>
<path d="M94.1665 49.3707H89.701V53.8362H94.1665V49.3707Z" fill="black"/>
<path d="M98.632 49.3707H94.1665V53.8362H98.632V49.3707Z" fill="black"/>
<path d="M107.563 49.3707H103.098V53.8362H107.563V49.3707Z" fill="black"/>
<path d="M112.029 49.3707H107.563V53.8362H112.029V49.3707Z" fill="black"/>
<path d="M13.7872 53.8362H9.32166V58.3017H13.7872V53.8362Z" fill="black"/>
<path d="M31.6492 53.8362H27.1837V58.3017H31.6492V53.8362Z" fill="black"/>
<path d="M40.5803 53.8362H36.1148V58.3017H40.5803V53.8362Z" fill="black"/>
<path d="M45.0458 53.8362H40.5803V58.3017H45.0458V53.8362Z" fill="black"/>
<path d="M49.5113 53.8362H45.0458V58.3017H49.5113V53.8362Z" fill="black"/>
<path d="M53.9768 53.8362H49.5113V58.3017H53.9768V53.8362Z" fill="black"/>
<path d="M58.4424 53.8362H53.9768V58.3017H58.4424V53.8362Z" fill="black"/>
<path d="M67.3734 53.8362H62.9079V58.3017H67.3734V53.8362Z" fill="black"/>
<path d="M71.8389 53.8362H67.3734V58.3017H71.8389V53.8362Z" fill="black"/>
<path d="M85.2355 53.8362H80.7699V58.3017H85.2355V53.8362Z" fill="black"/>
<path d="M89.701 53.8362H85.2355V58.3017H89.701V53.8362Z" fill="black"/>
<path d="M103.098 53.8362H98.632V58.3017H103.098V53.8362Z" fill="black"/>
<path d="M112.029 53.8362H107.563V58.3017H112.029V53.8362Z" fill="black"/>
<path d="M120.96 53.8362H116.494V58.3017H120.96V53.8362Z" fill="black"/>
<path d="M129.891 53.8362H125.425V58.3017H129.891V53.8362Z" fill="black"/>
<path d="M4.85614 58.3017H0.390625V62.7672H4.85614V58.3017Z" fill="black"/>
<path d="M9.32166 58.3017H4.85614V62.7672H9.32166V58.3017Z" fill="black"/>
<path d="M13.7872 58.3017H9.32166V62.7672H13.7872V58.3017Z" fill="black"/>
<path d="M18.2527 58.3017H13.7872V62.7672H18.2527V58.3017Z" fill="black"/>
<path d="M22.7182 58.3017H18.2527V62.7672H22.7182V58.3017Z" fill="black"/>
<path d="M27.1837 58.3017H22.7182V62.7672H27.1837V58.3017Z" fill="black"/>
<path d="M71.8389 58.3017H67.3734V62.7672H71.8389V58.3017Z" fill="black"/>
<path d="M76.3044 58.3017H71.8389V62.7672H76.3044V58.3017Z" fill="black"/>
<path d="M85.2355 58.3017H80.7699V62.7672H85.2355V58.3017Z" fill="black"/>
<path d="M89.701 58.3017H85.2355V62.7672H89.701V58.3017Z" fill="black"/>
<path d="M98.632 58.3017H94.1665V62.7672H98.632V58.3017Z" fill="black"/>
<path d="M103.098 58.3017H98.632V62.7672H103.098V58.3017Z" fill="black"/>
<path d="M107.563 58.3017H103.098V62.7672H107.563V58.3017Z" fill="black"/>
<path d="M125.425 58.3017H120.96V62.7672H125.425V58.3017Z" fill="black"/>
<path d="M129.891 58.3017H125.425V62.7672H129.891V58.3017Z" fill="black"/>
<path d="M9.32166 62.7672H4.85614V67.2328H9.32166V62.7672Z" fill="black"/>
<path d="M18.2527 62.7672H13.7872V67.2328H18.2527V62.7672Z" fill="black"/>
<path d="M22.7182 62.7672H18.2527V67.2328H22.7182V62.7672Z" fill="black"/>
<path d="M27.1837 62.7672H22.7182V67.2328H27.1837V62.7672Z" fill="black"/>
<path d="M31.6492 62.7672H27.1837V67.2328H31.6492V62.7672Z" fill="black"/>
<path d="M36.1148 62.7672H31.6492V67.2328H36.1148V62.7672Z" fill="black"/>
<path d="M45.0458 62.7672H40.5803V67.2328H45.0458V62.7672Z" fill="black"/>
<path d="M53.9768 62.7672H49.5113V67.2328H53.9768V62.7672Z" fill="black"/>
<path d="M71.8389 62.7672H67.3734V67.2328H71.8389V62.7672Z" fill="black"/>
<path d="M76.3044 62.7672H71.8389V67.2328H76.3044V62.7672Z" fill="black"/>
<path d="M94.1665 62.7672H89.701V67.2328H94.1665V62.7672Z" fill="black"/>
<path d="M103.098 62.7672H98.632V67.2328H103.098V62.7672Z" fill="black"/>
<path d="M112.029 62.7672H107.563V67.2328H112.029V62.7672Z" fill="black"/>
<path d="M116.494 62.7672H112.029V67.2328H116.494V62.7672Z" fill="black"/>
<path d="M129.891 62.7672H125.425V67.2328H129.891V62.7672Z" fill="black"/>
<path d="M9.32166 67.2328H4.85614V71.6983H9.32166V67.2328Z" fill="black"/>
<path d="M18.2527 67.2328H13.7872V71.6983H18.2527V67.2328Z" fill="black"/>
<path d="M40.5803 67.2328H36.1148V71.6983H40.5803V67.2328Z" fill="black"/>
<path d="M45.0458 67.2328H40.5803V71.6983H45.0458V67.2328Z" fill="black"/>
<path d="M53.9768 67.2328H49.5113V71.6983H53.9768V67.2328Z" fill="black"/>
<path d="M62.9079 67.2328H58.4424V71.6983H62.9079V67.2328Z" fill="black"/>
<path d="M67.3734 67.2328H62.9079V71.6983H67.3734V67.2328Z" fill="black"/>
<path d="M76.3044 67.2328H71.8389V71.6983H76.3044V67.2328Z" fill="black"/>
<path d="M80.7699 67.2328H76.3044V71.6983H80.7699V67.2328Z" fill="black"/>
<path d="M89.701 67.2328H85.2355V71.6983H89.701V67.2328Z" fill="black"/>
<path d="M98.632 67.2328H94.1665V71.6983H98.632V67.2328Z" fill="black"/>
<path d="M103.098 67.2328H98.632V71.6983H103.098V67.2328Z" fill="black"/>
<path d="M112.029 67.2328H107.563V71.6983H112.029V67.2328Z" fill="black"/>
<path d="M116.494 67.2328H112.029V71.6983H116.494V67.2328Z" fill="black"/>
<path d="M125.425 67.2328H120.96V71.6983H125.425V67.2328Z" fill="black"/>
<path d="M4.85614 71.6983H0.390625V76.1638H4.85614V71.6983Z" fill="black"/>
<path d="M13.7872 71.6983H9.32166V76.1638H13.7872V71.6983Z" fill="black"/>
<path d="M22.7182 71.6983H18.2527V76.1638H22.7182V71.6983Z" fill="black"/>
<path d="M31.6492 71.6983H27.1837V76.1638H31.6492V71.6983Z" fill="black"/>
<path d="M49.5113 71.6983H45.0458V76.1638H49.5113V71.6983Z" fill="black"/>
<path d="M58.4424 71.6983H53.9768V76.1638H58.4424V71.6983Z" fill="black"/>
<path d="M67.3734 71.6983H62.9079V76.1638H67.3734V71.6983Z" fill="black"/>
<path d="M71.8389 71.6983H67.3734V76.1638H71.8389V71.6983Z" fill="black"/>
<path d="M76.3044 71.6983H71.8389V76.1638H76.3044V71.6983Z" fill="black"/>
<path d="M89.701 71.6983H85.2355V76.1638H89.701V71.6983Z" fill="black"/>
<path d="M94.1665 71.6983H89.701V76.1638H94.1665V71.6983Z" fill="black"/>
<path d="M98.632 71.6983H94.1665V76.1638H98.632V71.6983Z" fill="black"/>
<path d="M107.563 71.6983H103.098V76.1638H107.563V71.6983Z" fill="black"/>
<path d="M116.494 71.6983H112.029V76.1638H116.494V71.6983Z" fill="black"/>
<path d="M9.32166 76.1638H4.85614V80.6293H9.32166V76.1638Z" fill="black"/>
<path d="M13.7872 76.1638H9.32166V80.6293H13.7872V76.1638Z" fill="black"/>
<path d="M36.1148 76.1638H31.6492V80.6293H36.1148V76.1638Z" fill="black"/>
<path d="M49.5113 76.1638H45.0458V80.6293H49.5113V76.1638Z" fill="black"/>
<path d="M58.4424 76.1638H53.9768V80.6293H58.4424V76.1638Z" fill="black"/>
<path d="M62.9079 76.1638H58.4424V80.6293H62.9079V76.1638Z" fill="black"/>
<path d="M71.8389 76.1638H67.3734V80.6293H71.8389V76.1638Z" fill="black"/>
<path d="M76.3044 76.1638H71.8389V80.6293H76.3044V76.1638Z" fill="black"/>
<path d="M85.2355 76.1638H80.7699V80.6293H85.2355V76.1638Z" fill="black"/>
<path d="M89.701 76.1638H85.2355V80.6293H89.701V76.1638Z" fill="black"/>
<path d="M103.098 76.1638H98.632V80.6293H103.098V76.1638Z" fill="black"/>
<path d="M4.85614 80.6293H0.390625V85.0948H4.85614V80.6293Z" fill="black"/>
<path d="M9.32166 80.6293H4.85614V85.0948H9.32166V80.6293Z" fill="black"/>
<path d="M13.7872 80.6293H9.32166V85.0948H13.7872V80.6293Z" fill="black"/>
<path d="M18.2527 80.6293H13.7872V85.0948H18.2527V80.6293Z" fill="black"/>
<path d="M22.7182 80.6293H18.2527V85.0948H22.7182V80.6293Z" fill="black"/>
<path d="M31.6492 80.6293H27.1837V85.0948H31.6492V80.6293Z" fill="black"/>
<path d="M36.1148 80.6293H31.6492V85.0948H36.1148V80.6293Z" fill="black"/>
<path d="M40.5803 80.6293H36.1148V85.0948H40.5803V80.6293Z" fill="black"/>
<path d="M62.9079 80.6293H58.4424V85.0948H62.9079V80.6293Z" fill="black"/>
<path d="M71.8389 80.6293H67.3734V85.0948H71.8389V80.6293Z" fill="black"/>
<path d="M80.7699 80.6293H76.3044V85.0948H80.7699V80.6293Z" fill="black"/>
<path d="M85.2355 80.6293H80.7699V85.0948H85.2355V80.6293Z" fill="black"/>
<path d="M89.701 80.6293H85.2355V85.0948H89.701V80.6293Z" fill="black"/>
<path d="M94.1665 80.6293H89.701V85.0948H94.1665V80.6293Z" fill="black"/>
<path d="M107.563 80.6293H103.098V85.0948H107.563V80.6293Z" fill="black"/>
<path d="M112.029 80.6293H107.563V85.0948H112.029V80.6293Z" fill="black"/>
<path d="M4.85614 85.0948H0.390625V89.5603H4.85614V85.0948Z" fill="black"/>
<path d="M27.1837 85.0948H22.7182V89.5603H27.1837V85.0948Z" fill="black"/>
<path d="M40.5803 85.0948H36.1148V89.5603H40.5803V85.0948Z" fill="black"/>
<path d="M49.5113 85.0948H45.0458V89.5603H49.5113V85.0948Z" fill="black"/>
<path d="M53.9768 85.0948H49.5113V89.5603H53.9768V85.0948Z" fill="black"/>
<path d="M62.9079 85.0948H58.4424V89.5603H62.9079V85.0948Z" fill="black"/>
<path d="M89.701 85.0948H85.2355V89.5603H89.701V85.0948Z" fill="black"/>
<path d="M116.494 85.0948H112.029V89.5603H116.494V85.0948Z" fill="black"/>
<path d="M120.96 85.0948H116.494V89.5603H120.96V85.0948Z" fill="black"/>
<path d="M125.425 85.0948H120.96V89.5603H125.425V85.0948Z" fill="black"/>
<path d="M13.7872 89.5603H9.32166V94.0259H13.7872V89.5603Z" fill="black"/>
<path d="M31.6492 89.5603H27.1837V94.0259H31.6492V89.5603Z" fill="black"/>
<path d="M45.0458 89.5603H40.5803V94.0259H45.0458V89.5603Z" fill="black"/>
<path d="M49.5113 89.5603H45.0458V94.0259H49.5113V89.5603Z" fill="black"/>
<path d="M62.9079 89.5603H58.4424V94.0259H62.9079V89.5603Z" fill="black"/>
<path d="M71.8389 89.5603H67.3734V94.0259H71.8389V89.5603Z" fill="black"/>
<path d="M76.3044 89.5603H71.8389V94.0259H76.3044V89.5603Z" fill="black"/>
<path d="M80.7699 89.5603H76.3044V94.0259H80.7699V89.5603Z" fill="black"/>
<path d="M94.1665 89.5603H89.701V94.0259H94.1665V89.5603Z" fill="black"/>
<path d="M98.632 89.5603H94.1665V94.0259H98.632V89.5603Z" fill="black"/>
<path d="M103.098 89.5603H98.632V94.0259H103.098V89.5603Z" fill="black"/>
<path d="M107.563 89.5603H103.098V94.0259H107.563V89.5603Z" fill="black"/>
<path d="M112.029 89.5603H107.563V94.0259H112.029V89.5603Z" fill="black"/>
<path d="M125.425 89.5603H120.96V94.0259H125.425V89.5603Z" fill="black"/>
<path d="M129.891 89.5603H125.425V94.0259H129.891V89.5603Z" fill="black"/>
<path d="M40.5803 94.0259H36.1148V98.4914H40.5803V94.0259Z" fill="black"/>
<path d="M58.4424 94.0259H53.9768V98.4914H58.4424V94.0259Z" fill="black"/>
<path d="M67.3734 94.0259H62.9079V98.4914H67.3734V94.0259Z" fill="black"/>
<path d="M71.8389 94.0259H67.3734V98.4914H71.8389V94.0259Z" fill="black"/>
<path d="M76.3044 94.0259H71.8389V98.4914H76.3044V94.0259Z" fill="black"/>
<path d="M80.7699 94.0259H76.3044V98.4914H80.7699V94.0259Z" fill="black"/>
<path d="M85.2355 94.0259H80.7699V98.4914H85.2355V94.0259Z" fill="black"/>
<path d="M94.1665 94.0259H89.701V98.4914H94.1665V94.0259Z" fill="black"/>
<path d="M112.029 94.0259H107.563V98.4914H112.029V94.0259Z" fill="black"/>
<path d="M120.96 94.0259H116.494V98.4914H120.96V94.0259Z" fill="black"/>
<path d="M125.425 94.0259H120.96V98.4914H125.425V94.0259Z" fill="black"/>
<path d="M4.85614 98.4914H0.390625V102.957H4.85614V98.4914Z" fill="black"/>
<path d="M9.32166 98.4914H4.85614V102.957H9.32166V98.4914Z" fill="black"/>
<path d="M13.7872 98.4914H9.32166V102.957H13.7872V98.4914Z" fill="black"/>
<path d="M18.2527 98.4914H13.7872V102.957H18.2527V98.4914Z" fill="black"/>
<path d="M22.7182 98.4914H18.2527V102.957H22.7182V98.4914Z" fill="black"/>
<path d="M27.1837 98.4914H22.7182V102.957H27.1837V98.4914Z" fill="black"/>
<path d="M31.6492 98.4914H27.1837V102.957H31.6492V98.4914Z" fill="black"/>
<path d="M45.0458 98.4914H40.5803V102.957H45.0458V98.4914Z" fill="black"/>
<path d="M53.9768 98.4914H49.5113V102.957H53.9768V98.4914Z" fill="black"/>
<path d="M58.4424 98.4914H53.9768V102.957H58.4424V98.4914Z" fill="black"/>
<path d="M67.3734 98.4914H62.9079V102.957H67.3734V98.4914Z" fill="black"/>
<path d="M80.7699 98.4914H76.3044V102.957H80.7699V98.4914Z" fill="black"/>
<path d="M94.1665 98.4914H89.701V102.957H94.1665V98.4914Z" fill="black"/>
<path d="M103.098 98.4914H98.632V102.957H103.098V98.4914Z" fill="black"/>
<path d="M112.029 98.4914H107.563V102.957H112.029V98.4914Z" fill="black"/>
<path d="M116.494 98.4914H112.029V102.957H116.494V98.4914Z" fill="black"/>
<path d="M129.891 98.4914H125.425V102.957H129.891V98.4914Z" fill="black"/>
<path d="M4.85614 102.957H0.390625V107.422H4.85614V102.957Z" fill="black"/>
<path d="M31.6492 102.957H27.1837V107.422H31.6492V102.957Z" fill="black"/>
<path d="M40.5803 102.957H36.1148V107.422H40.5803V102.957Z" fill="black"/>
<path d="M49.5113 102.957H45.0458V107.422H49.5113V102.957Z" fill="black"/>
<path d="M53.9768 102.957H49.5113V107.422H53.9768V102.957Z" fill="black"/>
<path d="M62.9079 102.957H58.4424V107.422H62.9079V102.957Z" fill="black"/>
<path d="M80.7699 102.957H76.3044V107.422H80.7699V102.957Z" fill="black"/>
<path d="M85.2355 102.957H80.7699V107.422H85.2355V102.957Z" fill="black"/>
<path d="M89.701 102.957H85.2355V107.422H89.701V102.957Z" fill="black"/>
<path d="M94.1665 102.957H89.701V107.422H94.1665V102.957Z" fill="black"/>
<path d="M112.029 102.957H107.563V107.422H112.029V102.957Z" fill="black"/>
<path d="M116.494 102.957H112.029V107.422H116.494V102.957Z" fill="black"/>
<path d="M125.425 102.957H120.96V107.422H125.425V102.957Z" fill="black"/>
<path d="M4.85614 107.422H0.390625V111.888H4.85614V107.422Z" fill="black"/>
<path d="M13.7872 107.422H9.32166V111.888H13.7872V107.422Z" fill="black"/>
<path d="M18.2527 107.422H13.7872V111.888H18.2527V107.422Z" fill="black"/>
<path d="M22.7182 107.422H18.2527V111.888H22.7182V107.422Z" fill="black"/>
<path d="M31.6492 107.422H27.1837V111.888H31.6492V107.422Z" fill="black"/>
<path d="M49.5113 107.422H45.0458V111.888H49.5113V107.422Z" fill="black"/>
<path d="M53.9768 107.422H49.5113V111.888H53.9768V107.422Z" fill="black"/>
<path d="M67.3734 107.422H62.9079V111.888H67.3734V107.422Z" fill="black"/>
<path d="M71.8389 107.422H67.3734V111.888H71.8389V107.422Z" fill="black"/>
<path d="M85.2355 107.422H80.7699V111.888H85.2355V107.422Z" fill="black"/>
<path d="M89.701 107.422H85.2355V111.888H89.701V107.422Z" fill="black"/>
<path d="M94.1665 107.422H89.701V111.888H94.1665V107.422Z" fill="black"/>
<path d="M98.632 107.422H94.1665V111.888H98.632V107.422Z" fill="black"/>
<path d="M103.098 107.422H98.632V111.888H103.098V107.422Z" fill="black"/>
<path d="M107.563 107.422H103.098V111.888H107.563V107.422Z" fill="black"/>
<path d="M112.029 107.422H107.563V111.888H112.029V107.422Z" fill="black"/>
<path d="M116.494 107.422H112.029V111.888H116.494V107.422Z" fill="black"/>
<path d="M120.96 107.422H116.494V111.888H120.96V107.422Z" fill="black"/>
<path d="M125.425 107.422H120.96V111.888H125.425V107.422Z" fill="black"/>
<path d="M129.891 107.422H125.425V111.888H129.891V107.422Z" fill="black"/>
<path d="M4.85614 111.888H0.390625V116.353H4.85614V111.888Z" fill="black"/>
<path d="M13.7872 111.888H9.32166V116.353H13.7872V111.888Z" fill="black"/>
<path d="M18.2527 111.888H13.7872V116.353H18.2527V111.888Z" fill="black"/>
<path d="M22.7182 111.888H18.2527V116.353H22.7182V111.888Z" fill="black"/>
<path d="M31.6492 111.888H27.1837V116.353H31.6492V111.888Z" fill="black"/>
<path d="M45.0458 111.888H40.5803V116.353H45.0458V111.888Z" fill="black"/>
<path d="M49.5113 111.888H45.0458V116.353H49.5113V111.888Z" fill="black"/>
<path d="M53.9768 111.888H49.5113V116.353H53.9768V111.888Z" fill="black"/>
<path d="M58.4424 111.888H53.9768V116.353H58.4424V111.888Z" fill="black"/>
<path d="M71.8389 111.888H67.3734V116.353H71.8389V111.888Z" fill="black"/>
<path d="M76.3044 111.888H71.8389V116.353H76.3044V111.888Z" fill="black"/>
<path d="M85.2355 111.888H80.7699V116.353H85.2355V111.888Z" fill="black"/>
<path d="M112.029 111.888H107.563V116.353H112.029V111.888Z" fill="black"/>
<path d="M116.494 111.888H112.029V116.353H116.494V111.888Z" fill="black"/>
<path d="M4.85614 116.353H0.390625V120.819H4.85614V116.353Z" fill="black"/>
<path d="M13.7872 116.353H9.32166V120.819H13.7872V116.353Z" fill="black"/>
<path d="M18.2527 116.353H13.7872V120.819H18.2527V116.353Z" fill="black"/>
<path d="M22.7182 116.353H18.2527V120.819H22.7182V116.353Z" fill="black"/>
<path d="M31.6492 116.353H27.1837V120.819H31.6492V116.353Z" fill="black"/>
<path d="M49.5113 116.353H45.0458V120.819H49.5113V116.353Z" fill="black"/>
<path d="M53.9768 116.353H49.5113V120.819H53.9768V116.353Z" fill="black"/>
<path d="M62.9079 116.353H58.4424V120.819H62.9079V116.353Z" fill="black"/>
<path d="M67.3734 116.353H62.9079V120.819H67.3734V116.353Z" fill="black"/>
<path d="M94.1665 116.353H89.701V120.819H94.1665V116.353Z" fill="black"/>
<path d="M98.632 116.353H94.1665V120.819H98.632V116.353Z" fill="black"/>
<path d="M107.563 116.353H103.098V120.819H107.563V116.353Z" fill="black"/>
<path d="M4.85614 120.819H0.390625V125.284H4.85614V120.819Z" fill="black"/>
<path d="M31.6492 120.819H27.1837V125.284H31.6492V120.819Z" fill="black"/>
<path d="M49.5113 120.819H45.0458V125.284H49.5113V120.819Z" fill="black"/>
<path d="M53.9768 120.819H49.5113V125.284H53.9768V120.819Z" fill="black"/>
<path d="M58.4424 120.819H53.9768V125.284H58.4424V120.819Z" fill="black"/>
<path d="M67.3734 120.819H62.9079V125.284H67.3734V120.819Z" fill="black"/>
<path d="M71.8389 120.819H67.3734V125.284H71.8389V120.819Z" fill="black"/>
<path d="M76.3044 120.819H71.8389V125.284H76.3044V120.819Z" fill="black"/>
<path d="M85.2355 120.819H80.7699V125.284H85.2355V120.819Z" fill="black"/>
<path d="M89.701 120.819H85.2355V125.284H89.701V120.819Z" fill="black"/>
<path d="M98.632 120.819H94.1665V125.284H98.632V120.819Z" fill="black"/>
<path d="M103.098 120.819H98.632V125.284H103.098V120.819Z" fill="black"/>
<path d="M107.563 120.819H103.098V125.284H107.563V120.819Z" fill="black"/>
<path d="M112.029 120.819H107.563V125.284H112.029V120.819Z" fill="black"/>
<path d="M125.425 120.819H120.96V125.284H125.425V120.819Z" fill="black"/>
<path d="M129.891 120.819H125.425V125.284H129.891V120.819Z" fill="black"/>
<path d="M4.85614 125.284H0.390625V129.75H4.85614V125.284Z" fill="black"/>
<path d="M9.32166 125.284H4.85614V129.75H9.32166V125.284Z" fill="black"/>
<path d="M13.7872 125.284H9.32166V129.75H13.7872V125.284Z" fill="black"/>
<path d="M18.2527 125.284H13.7872V129.75H18.2527V125.284Z" fill="black"/>
<path d="M22.7182 125.284H18.2527V129.75H22.7182V125.284Z" fill="black"/>
<path d="M27.1837 125.284H22.7182V129.75H27.1837V125.284Z" fill="black"/>
<path d="M31.6492 125.284H27.1837V129.75H31.6492V125.284Z" fill="black"/>
<path d="M45.0458 125.284H40.5803V129.75H45.0458V125.284Z" fill="black"/>
<path d="M58.4424 125.284H53.9768V129.75H58.4424V125.284Z" fill="black"/>
<path d="M67.3734 125.284H62.9079V129.75H67.3734V125.284Z" fill="black"/>
<path d="M80.7699 125.284H76.3044V129.75H80.7699V125.284Z" fill="black"/>
<path d="M85.2355 125.284H80.7699V129.75H85.2355V125.284Z" fill="black"/>
<path d="M89.701 125.284H85.2355V129.75H89.701V125.284Z" fill="black"/>
<path d="M98.632 125.284H94.1665V129.75H98.632V125.284Z" fill="black"/>
<path d="M116.494 125.284H112.029V129.75H116.494V125.284Z" fill="black"/>
<path d="M120.96 125.284H116.494V129.75H120.96V125.284Z" fill="black"/>
</svg>
