<svg width="64" height="64" viewBox="0 0 64 64" fill="none" xmlns="http://www.w3.org/2000/svg">
<rect width="64" height="64" rx="20" fill="#ABF600"/>
<path d="M31.9998 53.5199C29.8198 53.5199 27.6598 52.8799 25.9598 51.6199L17.3598 45.1999C15.0798 43.4999 13.2998 39.9399 13.2998 37.1199V22.2399C13.2998 19.1599 15.5598 15.8799 18.4598 14.7999L28.4398 11.0599C30.4198 10.3199 33.5398 10.3199 35.5198 11.0599L45.4998 14.7999C48.3998 15.8799 50.6598 19.1599 50.6598 22.2399V37.0999C50.6598 39.9399 48.8798 43.4799 46.5998 45.1799L37.9998 51.5999C36.3398 52.8799 34.1798 53.5199 31.9998 53.5199ZM29.4998 13.8799L19.5198 17.6199C17.8198 18.2599 16.3198 20.4199 16.3198 22.2599V37.1199C16.3198 39.0199 17.6598 41.6799 19.1598 42.7999L27.7598 49.2199C30.0598 50.9399 33.9398 50.9399 36.2598 49.2199L44.8598 42.7999C46.3798 41.6599 47.6998 39.0199 47.6998 37.1199V22.2399C47.6998 20.4199 46.1998 18.2599 44.4998 17.5999L34.5198 13.8599C33.1598 13.3799 30.8398 13.3799 29.4998 13.8799Z" fill="#008000"/>
<path d="M32 40.5C26.76 40.5 22.5 36.24 22.5 31C22.5 25.76 26.76 21.5 32 21.5C37.24 21.5 41.5 25.76 41.5 31C41.5 36.24 37.24 40.5 32 40.5ZM32 24.5C28.42 24.5 25.5 27.42 25.5 31C25.5 34.58 28.42 37.5 32 37.5C35.58 37.5 38.5 34.58 38.5 31C38.5 27.42 35.58 24.5 32 24.5Z" fill="#008000"/>
<path d="M29.9998 34.5C29.4998 34.5 28.9998 34.24 28.7198 33.78C28.2998 33.06 28.5198 32.14 29.2398 31.72L30.7598 30.8C30.9198 30.7 30.9998 30.54 30.9998 30.38V28.52C30.9998 27.7 31.6798 27.02 32.4998 27.02C33.3198 27.02 33.9998 27.68 33.9998 28.5V30.36C33.9998 31.58 33.3398 32.74 32.2998 33.36L30.7598 34.28C30.5398 34.44 30.2598 34.5 29.9998 34.5Z" fill="#008000"/>
</svg>
