<svg width="20" height="20" viewBox="0 0 20 20" fill="none" xmlns="http://www.w3.org/2000/svg">
    <g clip-path="url(#clip0_3588_1683)">
        <path
            d="M10.0013 12.5C11.382 12.5 12.5013 11.3807 12.5013 9.99996C12.5013 8.61925 11.382 7.49996 10.0013 7.49996C8.62059 7.49996 7.5013 8.61925 7.5013 9.99996C7.5013 11.3807 8.62059 12.5 10.0013 12.5Z"
            stroke="#717680" stroke-width="1.67" stroke-linecap="round" stroke-linejoin="round" />
        <path
            d="M15.6074 12.2727C15.5065 12.5012 15.4764 12.7547 15.521 13.0004C15.5656 13.2462 15.6827 13.4729 15.8574 13.6515L15.9028 13.6969C16.0437 13.8376 16.1554 14.0048 16.2317 14.1887C16.3079 14.3726 16.3472 14.5698 16.3472 14.7689C16.3472 14.968 16.3079 15.1652 16.2317 15.3491C16.1554 15.533 16.0437 15.7002 15.9028 15.8409C15.7621 15.9817 15.595 16.0935 15.4111 16.1697C15.2271 16.246 15.03 16.2852 14.8308 16.2852C14.6317 16.2852 14.4346 16.246 14.2506 16.1697C14.0667 16.0935 13.8996 15.9817 13.7589 15.8409L13.7134 15.7954C13.5349 15.6208 13.3081 15.5036 13.0624 15.459C12.8166 15.4145 12.5631 15.4446 12.3346 15.5454C12.1106 15.6414 11.9195 15.8009 11.7849 16.0042C11.6503 16.2074 11.578 16.4456 11.5771 16.6894V16.8181C11.5771 17.22 11.4174 17.6054 11.1333 17.8895C10.8491 18.1737 10.4638 18.3333 10.0619 18.3333C9.66007 18.3333 9.27468 18.1737 8.99053 17.8895C8.70639 17.6054 8.54676 17.22 8.54676 16.8181V16.75C8.54089 16.4992 8.45973 16.256 8.31381 16.052C8.1679 15.848 7.96398 15.6926 7.72858 15.606C7.50008 15.5052 7.24661 15.4751 7.00086 15.5197C6.7551 15.5642 6.52833 15.6814 6.34979 15.856L6.30433 15.9015C6.16362 16.0423 5.99651 16.1541 5.81258 16.2304C5.62864 16.3066 5.43148 16.3458 5.23236 16.3458C5.03325 16.3458 4.83609 16.3066 4.65215 16.2304C4.46821 16.1541 4.30111 16.0423 4.16039 15.9015C4.01952 15.7608 3.90776 15.5937 3.83151 15.4097C3.75527 15.2258 3.71602 15.0286 3.71602 14.8295C3.71602 14.6304 3.75527 14.4332 3.83151 14.2493C3.90776 14.0654 4.01952 13.8983 4.16039 13.7575L4.20585 13.7121C4.3805 13.5335 4.49765 13.3068 4.54221 13.061C4.58677 12.8153 4.55669 12.5618 4.45585 12.3333C4.35982 12.1092 4.20036 11.9181 3.99711 11.7835C3.79386 11.6489 3.55569 11.5767 3.31191 11.5757H3.18312C2.78128 11.5757 2.39589 11.4161 2.11175 11.1319C1.8276 10.8478 1.66797 10.4624 1.66797 10.0606C1.66797 9.65872 1.8276 9.27334 2.11175 8.98919C2.39589 8.70505 2.78128 8.54541 3.18312 8.54541H3.2513C3.50206 8.53955 3.74525 8.45838 3.94926 8.31247C4.15327 8.16655 4.30866 7.96264 4.39524 7.72723C4.49609 7.49874 4.52617 7.24527 4.48161 6.99951C4.43705 6.75376 4.31989 6.52699 4.14524 6.34844L4.09979 6.30299C3.95891 6.16227 3.84716 5.99517 3.77091 5.81123C3.69466 5.6273 3.65541 5.43013 3.65541 5.23102C3.65541 5.03191 3.69466 4.83474 3.77091 4.65081C3.84716 4.46687 3.95891 4.29977 4.09979 4.15905C4.2405 4.01818 4.40761 3.90642 4.59154 3.83017C4.77548 3.75392 4.97264 3.71468 5.17176 3.71468C5.37087 3.71468 5.56803 3.75392 5.75197 3.83017C5.93591 3.90642 6.10301 4.01818 6.24373 4.15905L6.28918 4.2045C6.46773 4.37915 6.6945 4.49631 6.94025 4.54087C7.186 4.58543 7.43947 4.55535 7.66797 4.4545H7.72858C7.95264 4.35847 8.14374 4.19902 8.27834 3.99577C8.41295 3.79252 8.48518 3.55434 8.48615 3.31057V3.18178C8.48615 2.77993 8.64578 2.39455 8.92993 2.1104C9.21407 1.82626 9.59946 1.66663 10.0013 1.66663C10.4031 1.66663 10.7885 1.82626 11.0727 2.1104C11.3568 2.39455 11.5165 2.77993 11.5165 3.18178V3.24996C11.5174 3.49374 11.5897 3.73191 11.7243 3.93516C11.8589 4.13841 12.05 4.29787 12.274 4.3939C12.5025 4.49474 12.756 4.52483 13.0017 4.48027C13.2475 4.43571 13.4743 4.31855 13.6528 4.1439L13.6983 4.09844C13.839 3.95757 14.0061 3.84581 14.19 3.76957C14.374 3.69332 14.5711 3.65407 14.7702 3.65407C14.9694 3.65407 15.1665 3.69332 15.3505 3.76957C15.5344 3.84581 15.7015 3.95757 15.8422 4.09844C15.9831 4.23916 16.0948 4.40627 16.1711 4.5902C16.2473 4.77414 16.2866 4.9713 16.2866 5.17041C16.2866 5.36953 16.2473 5.56669 16.1711 5.75063C16.0948 5.93456 15.9831 6.10167 15.8422 6.24238L15.7968 6.28784C15.6221 6.46638 15.505 6.69315 15.4604 6.93891C15.4158 7.18466 15.4459 7.43813 15.5468 7.66663V7.72723C15.6428 7.9513 15.8022 8.1424 16.0055 8.277C16.2087 8.4116 16.4469 8.48384 16.6907 8.48481H16.8195C17.2213 8.48481 17.6067 8.64444 17.8909 8.92859C18.175 9.21273 18.3346 9.59812 18.3346 9.99996C18.3346 10.4018 18.175 10.7872 17.8909 11.0713C17.6067 11.3555 17.2213 11.5151 16.8195 11.5151H16.7513C16.5075 11.5161 16.2694 11.5883 16.0661 11.7229C15.8629 11.8575 15.7034 12.0486 15.6074 12.2727Z"
            stroke="#717680" stroke-width="1.67" stroke-linecap="round" stroke-linejoin="round" />
    </g>
    <defs>
        <clipPath id="clip0_3588_1683">
            <rect width="20" height="20" fill="white" />
        </clipPath>
    </defs>
</svg>