<svg width="64" height="64" viewBox="0 0 64 64" fill="none" xmlns="http://www.w3.org/2000/svg">
<rect width="64" height="64" rx="20" fill="#ABF600"/>
<path d="M26 43H15M21 32H12M26 21H16M42 14L28.8071 32.47C28.2232 33.2875 27.9312 33.6963 27.9439 34.0371C27.9549 34.3338 28.0972 34.6102 28.3322 34.7916C28.6022 35 29.1045 35 30.1091 35H40L38 50L51.1929 31.53C51.7768 30.7125 52.0688 30.3037 52.0561 29.9629C52.0451 29.6662 51.9028 29.3898 51.6678 29.2084C51.3978 29 50.8955 29 49.8909 29H40L42 14Z" stroke="#008000" stroke-width="3" stroke-linecap="round" stroke-linejoin="round"/>
</svg>
