<svg width="38" height="38" viewBox="0 0 38 38" fill="none" xmlns="http://www.w3.org/2000/svg">
    <g opacity="0.3">
        <path
            d="M19 6C26.1797 6 32 11.8203 32 19C32 26.1797 26.1797 32 19 32C11.8203 32 6 26.1797 6 19C6 11.8203 11.8203 6 19 6Z"
            stroke="#079455" stroke-width="2" />
    </g>
    <g opacity="0.1">
        <path
            d="M19 1C28.9411 1 37 9.05887 37 19C37 28.9411 28.9411 37 19 37C9.05887 37 1 28.9411 1 19C1 9.05887 9.05887 1 19 1Z"
            stroke="#079455" stroke-width="2" />
    </g>
    <g clip-path="url(#clip0_4518_7519)">
        <path
            d="M15.2498 18.9998L17.7498 21.4998L22.7498 16.4998M27.3332 18.9998C27.3332 23.6022 23.6022 27.3332 18.9998 27.3332C14.3975 27.3332 10.6665 23.6022 10.6665 18.9998C10.6665 14.3975 14.3975 10.6665 18.9998 10.6665C23.6022 10.6665 27.3332 14.3975 27.3332 18.9998Z"
            stroke="#079455" stroke-width="1.66667" stroke-linecap="round" stroke-linejoin="round" />
    </g>
    <defs>
        <clipPath id="clip0_4518_7519">
            <rect width="20" height="20" fill="white" transform="translate(9 9)" />
        </clipPath>
    </defs>
</svg>