<svg width="20" height="20" viewBox="0 0 20 20" fill="none" xmlns="http://www.w3.org/2000/svg">
    <g clip-path="url(#clip0_3588_1693)">
        <path
            d="M5.07994 9.35729C5.02814 9.02348 5.00127 8.68151 5.00127 8.33329C5.00127 4.65139 8.00568 1.66663 11.7118 1.66663C15.4179 1.66663 18.4223 4.65139 18.4223 8.33329C18.4223 9.16502 18.269 9.96117 17.9889 10.6954C17.9308 10.8479 17.9017 10.9241 17.8885 10.9836C17.8754 11.0426 17.8703 11.0841 17.8689 11.1445C17.8675 11.2055 17.8757 11.2726 17.8923 11.4069L18.2278 14.1321C18.2641 14.4271 18.2822 14.5746 18.2332 14.6818C18.1902 14.7758 18.1138 14.8504 18.0189 14.8912C17.9105 14.9378 17.7635 14.9162 17.4694 14.8731L14.815 14.4841C14.6764 14.4637 14.6071 14.4536 14.544 14.4539C14.4816 14.4543 14.4384 14.4589 14.3773 14.4717C14.3155 14.4847 14.2366 14.5143 14.0788 14.5734C13.3427 14.8491 12.545 15 11.7118 15C11.3633 15 11.021 14.9736 10.6869 14.9227M6.36095 18.3333C8.8317 18.3333 10.8346 16.2813 10.8346 13.75C10.8346 11.2187 8.8317 9.16663 6.36095 9.16663C3.8902 9.16663 1.88727 11.2187 1.88727 13.75C1.88727 14.2588 1.9682 14.7482 2.11759 15.2056C2.18074 15.3989 2.21232 15.4955 2.22268 15.5616C2.2335 15.6305 2.2354 15.6692 2.23137 15.7389C2.22751 15.8056 2.21081 15.881 2.17742 16.0319L1.66797 18.3333L4.16364 17.9925C4.29986 17.9739 4.36797 17.9646 4.42744 17.965C4.49007 17.9654 4.52331 17.9688 4.58473 17.981C4.64306 17.9926 4.72977 18.0233 4.90319 18.0845C5.36013 18.2457 5.85056 18.3333 6.36095 18.3333Z"
            stroke="#717680" stroke-width="1.67" stroke-linecap="round" stroke-linejoin="round" />
    </g>
    <defs>
        <clipPath id="clip0_3588_1693">
            <rect width="20" height="20" fill="white" />
        </clipPath>
    </defs>
</svg>