<svg width="80" height="79" viewBox="0 0 80 79" fill="none" xmlns="http://www.w3.org/2000/svg">
    <g filter="url(#filter0_d_3477_6123)">
        <rect x="2" y="1" width="76" height="76" rx="38" fill="#FAFAFA" />
        <rect x="2.5" y="1.5" width="75" height="75" rx="37.5" stroke="#ADAEAC" />
        <rect width="48" height="48" transform="translate(16 15)" fill="#FAFAFA" />
        <path
            d="M44 30.4678C45.4817 31.2041 46.5 32.7331 46.5 34.5C46.5 36.2669 45.4817 37.7959 44 38.5322M46 43.7664C47.5115 44.4503 48.8725 45.565 50 47M30 47C31.9465 44.5226 34.5892 43 37.5 43C40.4108 43 43.0535 44.5226 45 47M42 34.5C42 36.9853 39.9853 39 37.5 39C35.0147 39 33 36.9853 33 34.5C33 32.0147 35.0147 30 37.5 30C39.9853 30 42 32.0147 42 34.5Z"
            stroke="black" stroke-width="2" stroke-linecap="round" stroke-linejoin="round" />
    </g>
    <defs>
        <filter id="filter0_d_3477_6123" x="0.6875" y="0.34375" width="78.625" height="78.625"
            filterUnits="userSpaceOnUse" color-interpolation-filters="sRGB">
            <feFlood flood-opacity="0" result="BackgroundImageFix" />
            <feColorMatrix in="SourceAlpha" type="matrix"
                values="0 0 0 0 0 0 0 0 0 0 0 0 0 0 0 0 0 0 127 0" result="hardAlpha" />
            <feOffset dy="0.65625" />
            <feGaussianBlur stdDeviation="0.65625" />
            <feColorMatrix type="matrix"
                values="0 0 0 0 0.0627451 0 0 0 0 0.0941176 0 0 0 0 0.156863 0 0 0 0.05 0" />
            <feBlend mode="normal" in2="BackgroundImageFix" result="effect1_dropShadow_3477_6123" />
            <feBlend mode="normal" in="SourceGraphic" in2="effect1_dropShadow_3477_6123"
                result="shape" />
        </filter>
    </defs>
</svg>