<svg width="36" height="36" viewBox="0 0 36 36" fill="none" xmlns="http://www.w3.org/2000/svg">
    <rect x="2" y="2" width="32" height="32" rx="16" fill="#F6FEE3" />
    <rect x="2" y="2" width="32" height="32" rx="16" stroke="#EFFECE" stroke-width="4" />
    <path
        d="M19.3337 11.5131V14.2668C19.3337 14.6402 19.3337 14.8269 19.4063 14.9695C19.4702 15.0949 19.5722 15.1969 19.6977 15.2608C19.8403 15.3335 20.027 15.3335 20.4003 15.3335H23.154M23.3337 16.659V21.4668C23.3337 22.5869 23.3337 23.147 23.1157 23.5748C22.9239 23.9511 22.618 24.2571 22.2416 24.4488C21.8138 24.6668 21.2538 24.6668 20.1337 24.6668H15.867C14.7469 24.6668 14.1868 24.6668 13.759 24.4488C13.3827 24.2571 13.0767 23.9511 12.885 23.5748C12.667 23.147 12.667 22.5869 12.667 21.4668V14.5335C12.667 13.4134 12.667 12.8533 12.885 12.4255C13.0767 12.0492 13.3827 11.7432 13.759 11.5515C14.1868 11.3335 14.7469 11.3335 15.867 11.3335H18.0082C18.4974 11.3335 18.7419 11.3335 18.9721 11.3888C19.1762 11.4377 19.3713 11.5186 19.5502 11.6282C19.7521 11.7519 19.925 11.9249 20.2709 12.2708L22.3964 14.3962C22.7423 14.7421 22.9153 14.9151 23.0389 15.1169C23.1486 15.2959 23.2294 15.491 23.2784 15.695C23.3337 15.9252 23.3337 16.1698 23.3337 16.659Z"
        stroke="#ABF600" stroke-width="1.33333" stroke-linecap="round" stroke-linejoin="round" />
</svg>